%TF.GenerationSoftware,KiCad,Pcbnew,7.0.6-0*%
%TF.CreationDate,2023-07-24T12:55:41-04:00*%
%TF.ProjectId,Test_1_V1,54657374-5f31-45f5-9631-2e6b69636164,rev?*%
%TF.SameCoordinates,Original*%
%TF.FileFunction,Soldermask,Top*%
%TF.FilePolarity,Negative*%
%FSLAX46Y46*%
G04 Gerber Fmt 4.6, Leading zero omitted, Abs format (unit mm)*
G04 Created by KiCad (PCBNEW 7.0.6-0) date 2023-07-24 12:55:41*
%MOMM*%
%LPD*%
G01*
G04 APERTURE LIST*
G04 Aperture macros list*
%AMRoundRect*
0 Rectangle with rounded corners*
0 $1 Rounding radius*
0 $2 $3 $4 $5 $6 $7 $8 $9 X,Y pos of 4 corners*
0 Add a 4 corners polygon primitive as box body*
4,1,4,$2,$3,$4,$5,$6,$7,$8,$9,$2,$3,0*
0 Add four circle primitives for the rounded corners*
1,1,$1+$1,$2,$3*
1,1,$1+$1,$4,$5*
1,1,$1+$1,$6,$7*
1,1,$1+$1,$8,$9*
0 Add four rect primitives between the rounded corners*
20,1,$1+$1,$2,$3,$4,$5,0*
20,1,$1+$1,$4,$5,$6,$7,0*
20,1,$1+$1,$6,$7,$8,$9,0*
20,1,$1+$1,$8,$9,$2,$3,0*%
%AMFreePoly0*
4,1,35,0.312797,1.099367,0.509479,1.023172,0.688811,0.912134,0.844687,0.770034,0.971798,0.601712,1.065816,0.412899,1.123538,0.210026,1.143000,0.000000,1.123538,-0.210026,1.065816,-0.412899,0.971798,-0.601712,0.844687,-0.770034,0.688811,-0.912134,0.509479,-1.023172,0.312797,-1.099367,0.105463,-1.138124,-0.105463,-1.138124,-0.312797,-1.099367,-0.509479,-1.023172,-0.688811,-0.912134,
-0.844687,-0.770034,-0.971798,-0.601712,-1.065816,-0.412899,-1.123538,-0.210026,-1.143000,0.000000,-1.123538,0.210026,-1.065816,0.412899,-0.971798,0.601712,-0.844687,0.770034,-0.688811,0.912134,-0.509479,1.023172,-0.312797,1.099367,-0.105463,1.138124,0.105463,1.138124,0.312797,1.099367,0.312797,1.099367,$1*%
G04 Aperture macros list end*
%ADD10FreePoly0,0.000000*%
%ADD11FreePoly0,270.000000*%
%ADD12C,1.500000*%
%ADD13R,1.600000X1.600000*%
%ADD14O,1.600000X1.600000*%
%ADD15RoundRect,0.381000X-0.762000X-0.381000X0.762000X-0.381000X0.762000X0.381000X-0.762000X0.381000X0*%
G04 APERTURE END LIST*
D10*
%TO.C,R3*%
X143070000Y-111660000D03*
X151570000Y-111660000D03*
%TD*%
D11*
%TO.C,C1*%
X148590000Y-121920000D03*
X148590000Y-124460000D03*
%TD*%
D12*
%TO.C,16MHz1*%
X127000000Y-116640000D03*
X127000000Y-111760000D03*
%TD*%
D10*
%TO.C,C2*%
X126000000Y-125730000D03*
X128540000Y-125730000D03*
%TD*%
%TO.C,C3*%
X126000000Y-122230000D03*
X128540000Y-122230000D03*
%TD*%
%TO.C,R2*%
X143070000Y-116740000D03*
X151570000Y-116740000D03*
%TD*%
D13*
%TO.C,U1*%
X132080000Y-92695000D03*
D14*
X132080000Y-95235000D03*
X132080000Y-97775000D03*
X132080000Y-100315000D03*
X132080000Y-102855000D03*
X132080000Y-105395000D03*
X132080000Y-107935000D03*
X132080000Y-110475000D03*
X132080000Y-113015000D03*
X132080000Y-115555000D03*
X132080000Y-118095000D03*
X132080000Y-120635000D03*
X132080000Y-123175000D03*
X132080000Y-125715000D03*
X139700000Y-125715000D03*
X139700000Y-123175000D03*
X139700000Y-120635000D03*
X139700000Y-118095000D03*
X139700000Y-115555000D03*
X139700000Y-113015000D03*
X139700000Y-110475000D03*
X139700000Y-107935000D03*
X139700000Y-105395000D03*
X139700000Y-102855000D03*
X139700000Y-100315000D03*
X139700000Y-97775000D03*
X139700000Y-95235000D03*
X139700000Y-92695000D03*
%TD*%
D15*
%TO.C,U3*%
X144780000Y-90520000D03*
X144780000Y-93520000D03*
X144780000Y-96520000D03*
X144780000Y-99520000D03*
X144780000Y-102520000D03*
X144780000Y-105520000D03*
X144780000Y-108520000D03*
%TD*%
%TO.C,U2*%
X127000000Y-102060000D03*
X127000000Y-99060000D03*
X127000000Y-96060000D03*
X127000000Y-93060000D03*
%TD*%
D11*
%TO.C,R1*%
X144880000Y-120210000D03*
X144880000Y-128710000D03*
%TD*%
D15*
%TO.C,U4*%
X152400000Y-121920000D03*
X152400000Y-127000000D03*
%TD*%
D10*
%TO.C,R4*%
X131200000Y-88900000D03*
X139700000Y-88900000D03*
%TD*%
M02*
