%TF.GenerationSoftware,KiCad,Pcbnew,7.0.6-0*%
%TF.CreationDate,2023-08-01T21:24:21-04:00*%
%TF.ProjectId,Light_Alarm,4c696768-745f-4416-9c61-726d2e6b6963,rev?*%
%TF.SameCoordinates,Original*%
%TF.FileFunction,Legend,Top*%
%TF.FilePolarity,Positive*%
%FSLAX46Y46*%
G04 Gerber Fmt 4.6, Leading zero omitted, Abs format (unit mm)*
G04 Created by KiCad (PCBNEW 7.0.6-0) date 2023-08-01 21:24:21*
%MOMM*%
%LPD*%
G01*
G04 APERTURE LIST*
%ADD10C,0.125000*%
%ADD11C,0.100000*%
%ADD12C,0.050000*%
%ADD13C,0.120000*%
G04 APERTURE END LIST*
D10*
X144981283Y-91372309D02*
X144981283Y-90872309D01*
X144981283Y-90872309D02*
X145100331Y-90872309D01*
X145100331Y-90872309D02*
X145171759Y-90896119D01*
X145171759Y-90896119D02*
X145219378Y-90943738D01*
X145219378Y-90943738D02*
X145243188Y-90991357D01*
X145243188Y-90991357D02*
X145266997Y-91086595D01*
X145266997Y-91086595D02*
X145266997Y-91158023D01*
X145266997Y-91158023D02*
X145243188Y-91253261D01*
X145243188Y-91253261D02*
X145219378Y-91300880D01*
X145219378Y-91300880D02*
X145171759Y-91348500D01*
X145171759Y-91348500D02*
X145100331Y-91372309D01*
X145100331Y-91372309D02*
X144981283Y-91372309D01*
X145695569Y-91372309D02*
X145695569Y-91110404D01*
X145695569Y-91110404D02*
X145671759Y-91062785D01*
X145671759Y-91062785D02*
X145624140Y-91038976D01*
X145624140Y-91038976D02*
X145528902Y-91038976D01*
X145528902Y-91038976D02*
X145481283Y-91062785D01*
X145695569Y-91348500D02*
X145647950Y-91372309D01*
X145647950Y-91372309D02*
X145528902Y-91372309D01*
X145528902Y-91372309D02*
X145481283Y-91348500D01*
X145481283Y-91348500D02*
X145457474Y-91300880D01*
X145457474Y-91300880D02*
X145457474Y-91253261D01*
X145457474Y-91253261D02*
X145481283Y-91205642D01*
X145481283Y-91205642D02*
X145528902Y-91181833D01*
X145528902Y-91181833D02*
X145647950Y-91181833D01*
X145647950Y-91181833D02*
X145695569Y-91158023D01*
X145933664Y-91038976D02*
X145933664Y-91372309D01*
X145933664Y-91086595D02*
X145957474Y-91062785D01*
X145957474Y-91062785D02*
X146005093Y-91038976D01*
X146005093Y-91038976D02*
X146076521Y-91038976D01*
X146076521Y-91038976D02*
X146124140Y-91062785D01*
X146124140Y-91062785D02*
X146147950Y-91110404D01*
X146147950Y-91110404D02*
X146147950Y-91372309D01*
X146386045Y-91372309D02*
X146386045Y-91038976D01*
X146386045Y-90872309D02*
X146362236Y-90896119D01*
X146362236Y-90896119D02*
X146386045Y-90919928D01*
X146386045Y-90919928D02*
X146409855Y-90896119D01*
X146409855Y-90896119D02*
X146386045Y-90872309D01*
X146386045Y-90872309D02*
X146386045Y-90919928D01*
X146814616Y-91348500D02*
X146766997Y-91372309D01*
X146766997Y-91372309D02*
X146671759Y-91372309D01*
X146671759Y-91372309D02*
X146624140Y-91348500D01*
X146624140Y-91348500D02*
X146600331Y-91300880D01*
X146600331Y-91300880D02*
X146600331Y-91110404D01*
X146600331Y-91110404D02*
X146624140Y-91062785D01*
X146624140Y-91062785D02*
X146671759Y-91038976D01*
X146671759Y-91038976D02*
X146766997Y-91038976D01*
X146766997Y-91038976D02*
X146814616Y-91062785D01*
X146814616Y-91062785D02*
X146838426Y-91110404D01*
X146838426Y-91110404D02*
X146838426Y-91158023D01*
X146838426Y-91158023D02*
X146600331Y-91205642D01*
X147124140Y-91372309D02*
X147076521Y-91348500D01*
X147076521Y-91348500D02*
X147052711Y-91300880D01*
X147052711Y-91300880D02*
X147052711Y-90872309D01*
X147981282Y-91372309D02*
X147814616Y-91134214D01*
X147695568Y-91372309D02*
X147695568Y-90872309D01*
X147695568Y-90872309D02*
X147886044Y-90872309D01*
X147886044Y-90872309D02*
X147933663Y-90896119D01*
X147933663Y-90896119D02*
X147957473Y-90919928D01*
X147957473Y-90919928D02*
X147981282Y-90967547D01*
X147981282Y-90967547D02*
X147981282Y-91038976D01*
X147981282Y-91038976D02*
X147957473Y-91086595D01*
X147957473Y-91086595D02*
X147933663Y-91110404D01*
X147933663Y-91110404D02*
X147886044Y-91134214D01*
X147886044Y-91134214D02*
X147695568Y-91134214D01*
X148409854Y-91372309D02*
X148409854Y-91110404D01*
X148409854Y-91110404D02*
X148386044Y-91062785D01*
X148386044Y-91062785D02*
X148338425Y-91038976D01*
X148338425Y-91038976D02*
X148243187Y-91038976D01*
X148243187Y-91038976D02*
X148195568Y-91062785D01*
X148409854Y-91348500D02*
X148362235Y-91372309D01*
X148362235Y-91372309D02*
X148243187Y-91372309D01*
X148243187Y-91372309D02*
X148195568Y-91348500D01*
X148195568Y-91348500D02*
X148171759Y-91300880D01*
X148171759Y-91300880D02*
X148171759Y-91253261D01*
X148171759Y-91253261D02*
X148195568Y-91205642D01*
X148195568Y-91205642D02*
X148243187Y-91181833D01*
X148243187Y-91181833D02*
X148362235Y-91181833D01*
X148362235Y-91181833D02*
X148409854Y-91158023D01*
X148647949Y-91372309D02*
X148647949Y-91038976D01*
X148647949Y-91086595D02*
X148671759Y-91062785D01*
X148671759Y-91062785D02*
X148719378Y-91038976D01*
X148719378Y-91038976D02*
X148790806Y-91038976D01*
X148790806Y-91038976D02*
X148838425Y-91062785D01*
X148838425Y-91062785D02*
X148862235Y-91110404D01*
X148862235Y-91110404D02*
X148862235Y-91372309D01*
X148862235Y-91110404D02*
X148886044Y-91062785D01*
X148886044Y-91062785D02*
X148933663Y-91038976D01*
X148933663Y-91038976D02*
X149005092Y-91038976D01*
X149005092Y-91038976D02*
X149052711Y-91062785D01*
X149052711Y-91062785D02*
X149076521Y-91110404D01*
X149076521Y-91110404D02*
X149076521Y-91372309D01*
X149290807Y-91348500D02*
X149338426Y-91372309D01*
X149338426Y-91372309D02*
X149433664Y-91372309D01*
X149433664Y-91372309D02*
X149481283Y-91348500D01*
X149481283Y-91348500D02*
X149505092Y-91300880D01*
X149505092Y-91300880D02*
X149505092Y-91277071D01*
X149505092Y-91277071D02*
X149481283Y-91229452D01*
X149481283Y-91229452D02*
X149433664Y-91205642D01*
X149433664Y-91205642D02*
X149362235Y-91205642D01*
X149362235Y-91205642D02*
X149314616Y-91181833D01*
X149314616Y-91181833D02*
X149290807Y-91134214D01*
X149290807Y-91134214D02*
X149290807Y-91110404D01*
X149290807Y-91110404D02*
X149314616Y-91062785D01*
X149314616Y-91062785D02*
X149362235Y-91038976D01*
X149362235Y-91038976D02*
X149433664Y-91038976D01*
X149433664Y-91038976D02*
X149481283Y-91062785D01*
X149933664Y-91038976D02*
X149933664Y-91443738D01*
X149933664Y-91443738D02*
X149909854Y-91491357D01*
X149909854Y-91491357D02*
X149886045Y-91515166D01*
X149886045Y-91515166D02*
X149838426Y-91538976D01*
X149838426Y-91538976D02*
X149766997Y-91538976D01*
X149766997Y-91538976D02*
X149719378Y-91515166D01*
X149933664Y-91348500D02*
X149886045Y-91372309D01*
X149886045Y-91372309D02*
X149790807Y-91372309D01*
X149790807Y-91372309D02*
X149743188Y-91348500D01*
X149743188Y-91348500D02*
X149719378Y-91324690D01*
X149719378Y-91324690D02*
X149695569Y-91277071D01*
X149695569Y-91277071D02*
X149695569Y-91134214D01*
X149695569Y-91134214D02*
X149719378Y-91086595D01*
X149719378Y-91086595D02*
X149743188Y-91062785D01*
X149743188Y-91062785D02*
X149790807Y-91038976D01*
X149790807Y-91038976D02*
X149886045Y-91038976D01*
X149886045Y-91038976D02*
X149933664Y-91062785D01*
X150386045Y-91372309D02*
X150386045Y-91110404D01*
X150386045Y-91110404D02*
X150362235Y-91062785D01*
X150362235Y-91062785D02*
X150314616Y-91038976D01*
X150314616Y-91038976D02*
X150219378Y-91038976D01*
X150219378Y-91038976D02*
X150171759Y-91062785D01*
X150386045Y-91348500D02*
X150338426Y-91372309D01*
X150338426Y-91372309D02*
X150219378Y-91372309D01*
X150219378Y-91372309D02*
X150171759Y-91348500D01*
X150171759Y-91348500D02*
X150147950Y-91300880D01*
X150147950Y-91300880D02*
X150147950Y-91253261D01*
X150147950Y-91253261D02*
X150171759Y-91205642D01*
X150171759Y-91205642D02*
X150219378Y-91181833D01*
X150219378Y-91181833D02*
X150338426Y-91181833D01*
X150338426Y-91181833D02*
X150386045Y-91158023D01*
X150624140Y-91372309D02*
X150624140Y-91038976D01*
X150624140Y-91134214D02*
X150647950Y-91086595D01*
X150647950Y-91086595D02*
X150671759Y-91062785D01*
X150671759Y-91062785D02*
X150719378Y-91038976D01*
X150719378Y-91038976D02*
X150766997Y-91038976D01*
X151147950Y-91372309D02*
X151147950Y-90872309D01*
X151147950Y-91348500D02*
X151100331Y-91372309D01*
X151100331Y-91372309D02*
X151005093Y-91372309D01*
X151005093Y-91372309D02*
X150957474Y-91348500D01*
X150957474Y-91348500D02*
X150933664Y-91324690D01*
X150933664Y-91324690D02*
X150909855Y-91277071D01*
X150909855Y-91277071D02*
X150909855Y-91134214D01*
X150909855Y-91134214D02*
X150933664Y-91086595D01*
X150933664Y-91086595D02*
X150957474Y-91062785D01*
X150957474Y-91062785D02*
X151005093Y-91038976D01*
X151005093Y-91038976D02*
X151100331Y-91038976D01*
X151100331Y-91038976D02*
X151147950Y-91062785D01*
X145201283Y-89932309D02*
X145201283Y-89432309D01*
X145201283Y-89432309D02*
X145391759Y-89432309D01*
X145391759Y-89432309D02*
X145439378Y-89456119D01*
X145439378Y-89456119D02*
X145463188Y-89479928D01*
X145463188Y-89479928D02*
X145486997Y-89527547D01*
X145486997Y-89527547D02*
X145486997Y-89598976D01*
X145486997Y-89598976D02*
X145463188Y-89646595D01*
X145463188Y-89646595D02*
X145439378Y-89670404D01*
X145439378Y-89670404D02*
X145391759Y-89694214D01*
X145391759Y-89694214D02*
X145201283Y-89694214D01*
X145701283Y-89932309D02*
X145701283Y-89598976D01*
X145701283Y-89694214D02*
X145725093Y-89646595D01*
X145725093Y-89646595D02*
X145748902Y-89622785D01*
X145748902Y-89622785D02*
X145796521Y-89598976D01*
X145796521Y-89598976D02*
X145844140Y-89598976D01*
X146082236Y-89932309D02*
X146034617Y-89908500D01*
X146034617Y-89908500D02*
X146010807Y-89884690D01*
X146010807Y-89884690D02*
X145986998Y-89837071D01*
X145986998Y-89837071D02*
X145986998Y-89694214D01*
X145986998Y-89694214D02*
X146010807Y-89646595D01*
X146010807Y-89646595D02*
X146034617Y-89622785D01*
X146034617Y-89622785D02*
X146082236Y-89598976D01*
X146082236Y-89598976D02*
X146153664Y-89598976D01*
X146153664Y-89598976D02*
X146201283Y-89622785D01*
X146201283Y-89622785D02*
X146225093Y-89646595D01*
X146225093Y-89646595D02*
X146248902Y-89694214D01*
X146248902Y-89694214D02*
X146248902Y-89837071D01*
X146248902Y-89837071D02*
X146225093Y-89884690D01*
X146225093Y-89884690D02*
X146201283Y-89908500D01*
X146201283Y-89908500D02*
X146153664Y-89932309D01*
X146153664Y-89932309D02*
X146082236Y-89932309D01*
X146677474Y-89932309D02*
X146677474Y-89432309D01*
X146677474Y-89908500D02*
X146629855Y-89932309D01*
X146629855Y-89932309D02*
X146534617Y-89932309D01*
X146534617Y-89932309D02*
X146486998Y-89908500D01*
X146486998Y-89908500D02*
X146463188Y-89884690D01*
X146463188Y-89884690D02*
X146439379Y-89837071D01*
X146439379Y-89837071D02*
X146439379Y-89694214D01*
X146439379Y-89694214D02*
X146463188Y-89646595D01*
X146463188Y-89646595D02*
X146486998Y-89622785D01*
X146486998Y-89622785D02*
X146534617Y-89598976D01*
X146534617Y-89598976D02*
X146629855Y-89598976D01*
X146629855Y-89598976D02*
X146677474Y-89622785D01*
X147129855Y-89598976D02*
X147129855Y-89932309D01*
X146915569Y-89598976D02*
X146915569Y-89860880D01*
X146915569Y-89860880D02*
X146939379Y-89908500D01*
X146939379Y-89908500D02*
X146986998Y-89932309D01*
X146986998Y-89932309D02*
X147058426Y-89932309D01*
X147058426Y-89932309D02*
X147106045Y-89908500D01*
X147106045Y-89908500D02*
X147129855Y-89884690D01*
X147582236Y-89908500D02*
X147534617Y-89932309D01*
X147534617Y-89932309D02*
X147439379Y-89932309D01*
X147439379Y-89932309D02*
X147391760Y-89908500D01*
X147391760Y-89908500D02*
X147367950Y-89884690D01*
X147367950Y-89884690D02*
X147344141Y-89837071D01*
X147344141Y-89837071D02*
X147344141Y-89694214D01*
X147344141Y-89694214D02*
X147367950Y-89646595D01*
X147367950Y-89646595D02*
X147391760Y-89622785D01*
X147391760Y-89622785D02*
X147439379Y-89598976D01*
X147439379Y-89598976D02*
X147534617Y-89598976D01*
X147534617Y-89598976D02*
X147582236Y-89622785D01*
X147986997Y-89908500D02*
X147939378Y-89932309D01*
X147939378Y-89932309D02*
X147844140Y-89932309D01*
X147844140Y-89932309D02*
X147796521Y-89908500D01*
X147796521Y-89908500D02*
X147772712Y-89860880D01*
X147772712Y-89860880D02*
X147772712Y-89670404D01*
X147772712Y-89670404D02*
X147796521Y-89622785D01*
X147796521Y-89622785D02*
X147844140Y-89598976D01*
X147844140Y-89598976D02*
X147939378Y-89598976D01*
X147939378Y-89598976D02*
X147986997Y-89622785D01*
X147986997Y-89622785D02*
X148010807Y-89670404D01*
X148010807Y-89670404D02*
X148010807Y-89718023D01*
X148010807Y-89718023D02*
X147772712Y-89765642D01*
X148439378Y-89932309D02*
X148439378Y-89432309D01*
X148439378Y-89908500D02*
X148391759Y-89932309D01*
X148391759Y-89932309D02*
X148296521Y-89932309D01*
X148296521Y-89932309D02*
X148248902Y-89908500D01*
X148248902Y-89908500D02*
X148225092Y-89884690D01*
X148225092Y-89884690D02*
X148201283Y-89837071D01*
X148201283Y-89837071D02*
X148201283Y-89694214D01*
X148201283Y-89694214D02*
X148225092Y-89646595D01*
X148225092Y-89646595D02*
X148248902Y-89622785D01*
X148248902Y-89622785D02*
X148296521Y-89598976D01*
X148296521Y-89598976D02*
X148391759Y-89598976D01*
X148391759Y-89598976D02*
X148439378Y-89622785D01*
X149225092Y-89670404D02*
X149296520Y-89694214D01*
X149296520Y-89694214D02*
X149320330Y-89718023D01*
X149320330Y-89718023D02*
X149344139Y-89765642D01*
X149344139Y-89765642D02*
X149344139Y-89837071D01*
X149344139Y-89837071D02*
X149320330Y-89884690D01*
X149320330Y-89884690D02*
X149296520Y-89908500D01*
X149296520Y-89908500D02*
X149248901Y-89932309D01*
X149248901Y-89932309D02*
X149058425Y-89932309D01*
X149058425Y-89932309D02*
X149058425Y-89432309D01*
X149058425Y-89432309D02*
X149225092Y-89432309D01*
X149225092Y-89432309D02*
X149272711Y-89456119D01*
X149272711Y-89456119D02*
X149296520Y-89479928D01*
X149296520Y-89479928D02*
X149320330Y-89527547D01*
X149320330Y-89527547D02*
X149320330Y-89575166D01*
X149320330Y-89575166D02*
X149296520Y-89622785D01*
X149296520Y-89622785D02*
X149272711Y-89646595D01*
X149272711Y-89646595D02*
X149225092Y-89670404D01*
X149225092Y-89670404D02*
X149058425Y-89670404D01*
X149510806Y-89598976D02*
X149629854Y-89932309D01*
X149748901Y-89598976D02*
X149629854Y-89932309D01*
X149629854Y-89932309D02*
X149582235Y-90051357D01*
X149582235Y-90051357D02*
X149558425Y-90075166D01*
X149558425Y-90075166D02*
X149510806Y-90098976D01*
D11*
X165280074Y-93925847D02*
X165356265Y-93925847D01*
X165356265Y-93925847D02*
X165394360Y-93906800D01*
X165394360Y-93906800D02*
X165413408Y-93887752D01*
X165413408Y-93887752D02*
X165451503Y-93830609D01*
X165451503Y-93830609D02*
X165470550Y-93754419D01*
X165470550Y-93754419D02*
X165470550Y-93602038D01*
X165470550Y-93602038D02*
X165451503Y-93563942D01*
X165451503Y-93563942D02*
X165432455Y-93544895D01*
X165432455Y-93544895D02*
X165394360Y-93525847D01*
X165394360Y-93525847D02*
X165318169Y-93525847D01*
X165318169Y-93525847D02*
X165280074Y-93544895D01*
X165280074Y-93544895D02*
X165261027Y-93563942D01*
X165261027Y-93563942D02*
X165241979Y-93602038D01*
X165241979Y-93602038D02*
X165241979Y-93697276D01*
X165241979Y-93697276D02*
X165261027Y-93735371D01*
X165261027Y-93735371D02*
X165280074Y-93754419D01*
X165280074Y-93754419D02*
X165318169Y-93773466D01*
X165318169Y-93773466D02*
X165394360Y-93773466D01*
X165394360Y-93773466D02*
X165432455Y-93754419D01*
X165432455Y-93754419D02*
X165451503Y-93735371D01*
X165451503Y-93735371D02*
X165470550Y-93697276D01*
X165584836Y-93525847D02*
X165718169Y-93925847D01*
X165718169Y-93925847D02*
X165851502Y-93525847D01*
X165984836Y-93773466D02*
X166289598Y-93773466D01*
X166689597Y-93544895D02*
X166651502Y-93525847D01*
X166651502Y-93525847D02*
X166594359Y-93525847D01*
X166594359Y-93525847D02*
X166537216Y-93544895D01*
X166537216Y-93544895D02*
X166499121Y-93582990D01*
X166499121Y-93582990D02*
X166480074Y-93621085D01*
X166480074Y-93621085D02*
X166461026Y-93697276D01*
X166461026Y-93697276D02*
X166461026Y-93754419D01*
X166461026Y-93754419D02*
X166480074Y-93830609D01*
X166480074Y-93830609D02*
X166499121Y-93868704D01*
X166499121Y-93868704D02*
X166537216Y-93906800D01*
X166537216Y-93906800D02*
X166594359Y-93925847D01*
X166594359Y-93925847D02*
X166632455Y-93925847D01*
X166632455Y-93925847D02*
X166689597Y-93906800D01*
X166689597Y-93906800D02*
X166708645Y-93887752D01*
X166708645Y-93887752D02*
X166708645Y-93754419D01*
X166708645Y-93754419D02*
X166632455Y-93754419D01*
X166880074Y-93925847D02*
X166880074Y-93525847D01*
X166880074Y-93525847D02*
X167108645Y-93925847D01*
X167108645Y-93925847D02*
X167108645Y-93525847D01*
X167299122Y-93925847D02*
X167299122Y-93525847D01*
X167299122Y-93525847D02*
X167394360Y-93525847D01*
X167394360Y-93525847D02*
X167451503Y-93544895D01*
X167451503Y-93544895D02*
X167489598Y-93582990D01*
X167489598Y-93582990D02*
X167508645Y-93621085D01*
X167508645Y-93621085D02*
X167527693Y-93697276D01*
X167527693Y-93697276D02*
X167527693Y-93754419D01*
X167527693Y-93754419D02*
X167508645Y-93830609D01*
X167508645Y-93830609D02*
X167489598Y-93868704D01*
X167489598Y-93868704D02*
X167451503Y-93906800D01*
X167451503Y-93906800D02*
X167394360Y-93925847D01*
X167394360Y-93925847D02*
X167299122Y-93925847D01*
X168003884Y-93925847D02*
X168003884Y-93525847D01*
X168003884Y-93525847D02*
X168156265Y-93525847D01*
X168156265Y-93525847D02*
X168194360Y-93544895D01*
X168194360Y-93544895D02*
X168213407Y-93563942D01*
X168213407Y-93563942D02*
X168232455Y-93602038D01*
X168232455Y-93602038D02*
X168232455Y-93659180D01*
X168232455Y-93659180D02*
X168213407Y-93697276D01*
X168213407Y-93697276D02*
X168194360Y-93716323D01*
X168194360Y-93716323D02*
X168156265Y-93735371D01*
X168156265Y-93735371D02*
X168003884Y-93735371D01*
X168384836Y-93906800D02*
X168441979Y-93925847D01*
X168441979Y-93925847D02*
X168537217Y-93925847D01*
X168537217Y-93925847D02*
X168575312Y-93906800D01*
X168575312Y-93906800D02*
X168594360Y-93887752D01*
X168594360Y-93887752D02*
X168613407Y-93849657D01*
X168613407Y-93849657D02*
X168613407Y-93811561D01*
X168613407Y-93811561D02*
X168594360Y-93773466D01*
X168594360Y-93773466D02*
X168575312Y-93754419D01*
X168575312Y-93754419D02*
X168537217Y-93735371D01*
X168537217Y-93735371D02*
X168461026Y-93716323D01*
X168461026Y-93716323D02*
X168422931Y-93697276D01*
X168422931Y-93697276D02*
X168403884Y-93678228D01*
X168403884Y-93678228D02*
X168384836Y-93640133D01*
X168384836Y-93640133D02*
X168384836Y-93602038D01*
X168384836Y-93602038D02*
X168403884Y-93563942D01*
X168403884Y-93563942D02*
X168422931Y-93544895D01*
X168422931Y-93544895D02*
X168461026Y-93525847D01*
X168461026Y-93525847D02*
X168556265Y-93525847D01*
X168556265Y-93525847D02*
X168613407Y-93544895D01*
X160906666Y-101496109D02*
X160740000Y-101258014D01*
X160620952Y-101496109D02*
X160620952Y-100996109D01*
X160620952Y-100996109D02*
X160811428Y-100996109D01*
X160811428Y-100996109D02*
X160859047Y-101019919D01*
X160859047Y-101019919D02*
X160882857Y-101043728D01*
X160882857Y-101043728D02*
X160906666Y-101091347D01*
X160906666Y-101091347D02*
X160906666Y-101162776D01*
X160906666Y-101162776D02*
X160882857Y-101210395D01*
X160882857Y-101210395D02*
X160859047Y-101234204D01*
X160859047Y-101234204D02*
X160811428Y-101258014D01*
X160811428Y-101258014D02*
X160620952Y-101258014D01*
X161097143Y-101043728D02*
X161120952Y-101019919D01*
X161120952Y-101019919D02*
X161168571Y-100996109D01*
X161168571Y-100996109D02*
X161287619Y-100996109D01*
X161287619Y-100996109D02*
X161335238Y-101019919D01*
X161335238Y-101019919D02*
X161359047Y-101043728D01*
X161359047Y-101043728D02*
X161382857Y-101091347D01*
X161382857Y-101091347D02*
X161382857Y-101138966D01*
X161382857Y-101138966D02*
X161359047Y-101210395D01*
X161359047Y-101210395D02*
X161073333Y-101496109D01*
X161073333Y-101496109D02*
X161382857Y-101496109D01*
X159980550Y-102503609D02*
X159813884Y-102265514D01*
X159694836Y-102503609D02*
X159694836Y-102003609D01*
X159694836Y-102003609D02*
X159885312Y-102003609D01*
X159885312Y-102003609D02*
X159932931Y-102027419D01*
X159932931Y-102027419D02*
X159956741Y-102051228D01*
X159956741Y-102051228D02*
X159980550Y-102098847D01*
X159980550Y-102098847D02*
X159980550Y-102170276D01*
X159980550Y-102170276D02*
X159956741Y-102217895D01*
X159956741Y-102217895D02*
X159932931Y-102241704D01*
X159932931Y-102241704D02*
X159885312Y-102265514D01*
X159885312Y-102265514D02*
X159694836Y-102265514D01*
X160385312Y-102479800D02*
X160337693Y-102503609D01*
X160337693Y-102503609D02*
X160242455Y-102503609D01*
X160242455Y-102503609D02*
X160194836Y-102479800D01*
X160194836Y-102479800D02*
X160171027Y-102432180D01*
X160171027Y-102432180D02*
X160171027Y-102241704D01*
X160171027Y-102241704D02*
X160194836Y-102194085D01*
X160194836Y-102194085D02*
X160242455Y-102170276D01*
X160242455Y-102170276D02*
X160337693Y-102170276D01*
X160337693Y-102170276D02*
X160385312Y-102194085D01*
X160385312Y-102194085D02*
X160409122Y-102241704D01*
X160409122Y-102241704D02*
X160409122Y-102289323D01*
X160409122Y-102289323D02*
X160171027Y-102336942D01*
X160599598Y-102479800D02*
X160647217Y-102503609D01*
X160647217Y-102503609D02*
X160742455Y-102503609D01*
X160742455Y-102503609D02*
X160790074Y-102479800D01*
X160790074Y-102479800D02*
X160813883Y-102432180D01*
X160813883Y-102432180D02*
X160813883Y-102408371D01*
X160813883Y-102408371D02*
X160790074Y-102360752D01*
X160790074Y-102360752D02*
X160742455Y-102336942D01*
X160742455Y-102336942D02*
X160671026Y-102336942D01*
X160671026Y-102336942D02*
X160623407Y-102313133D01*
X160623407Y-102313133D02*
X160599598Y-102265514D01*
X160599598Y-102265514D02*
X160599598Y-102241704D01*
X160599598Y-102241704D02*
X160623407Y-102194085D01*
X160623407Y-102194085D02*
X160671026Y-102170276D01*
X160671026Y-102170276D02*
X160742455Y-102170276D01*
X160742455Y-102170276D02*
X160790074Y-102194085D01*
X161028169Y-102503609D02*
X161028169Y-102170276D01*
X161028169Y-102003609D02*
X161004360Y-102027419D01*
X161004360Y-102027419D02*
X161028169Y-102051228D01*
X161028169Y-102051228D02*
X161051979Y-102027419D01*
X161051979Y-102027419D02*
X161028169Y-102003609D01*
X161028169Y-102003609D02*
X161028169Y-102051228D01*
X161242455Y-102479800D02*
X161290074Y-102503609D01*
X161290074Y-102503609D02*
X161385312Y-102503609D01*
X161385312Y-102503609D02*
X161432931Y-102479800D01*
X161432931Y-102479800D02*
X161456740Y-102432180D01*
X161456740Y-102432180D02*
X161456740Y-102408371D01*
X161456740Y-102408371D02*
X161432931Y-102360752D01*
X161432931Y-102360752D02*
X161385312Y-102336942D01*
X161385312Y-102336942D02*
X161313883Y-102336942D01*
X161313883Y-102336942D02*
X161266264Y-102313133D01*
X161266264Y-102313133D02*
X161242455Y-102265514D01*
X161242455Y-102265514D02*
X161242455Y-102241704D01*
X161242455Y-102241704D02*
X161266264Y-102194085D01*
X161266264Y-102194085D02*
X161313883Y-102170276D01*
X161313883Y-102170276D02*
X161385312Y-102170276D01*
X161385312Y-102170276D02*
X161432931Y-102194085D01*
X161599598Y-102170276D02*
X161790074Y-102170276D01*
X161671026Y-102003609D02*
X161671026Y-102432180D01*
X161671026Y-102432180D02*
X161694836Y-102479800D01*
X161694836Y-102479800D02*
X161742455Y-102503609D01*
X161742455Y-102503609D02*
X161790074Y-102503609D01*
X162028169Y-102503609D02*
X161980550Y-102479800D01*
X161980550Y-102479800D02*
X161956740Y-102455990D01*
X161956740Y-102455990D02*
X161932931Y-102408371D01*
X161932931Y-102408371D02*
X161932931Y-102265514D01*
X161932931Y-102265514D02*
X161956740Y-102217895D01*
X161956740Y-102217895D02*
X161980550Y-102194085D01*
X161980550Y-102194085D02*
X162028169Y-102170276D01*
X162028169Y-102170276D02*
X162099597Y-102170276D01*
X162099597Y-102170276D02*
X162147216Y-102194085D01*
X162147216Y-102194085D02*
X162171026Y-102217895D01*
X162171026Y-102217895D02*
X162194835Y-102265514D01*
X162194835Y-102265514D02*
X162194835Y-102408371D01*
X162194835Y-102408371D02*
X162171026Y-102455990D01*
X162171026Y-102455990D02*
X162147216Y-102479800D01*
X162147216Y-102479800D02*
X162099597Y-102503609D01*
X162099597Y-102503609D02*
X162028169Y-102503609D01*
X162409121Y-102503609D02*
X162409121Y-102170276D01*
X162409121Y-102265514D02*
X162432931Y-102217895D01*
X162432931Y-102217895D02*
X162456740Y-102194085D01*
X162456740Y-102194085D02*
X162504359Y-102170276D01*
X162504359Y-102170276D02*
X162551978Y-102170276D01*
D12*
X152236666Y-100659923D02*
X152170000Y-100564685D01*
X152122381Y-100659923D02*
X152122381Y-100459923D01*
X152122381Y-100459923D02*
X152198571Y-100459923D01*
X152198571Y-100459923D02*
X152217619Y-100469447D01*
X152217619Y-100469447D02*
X152227142Y-100478971D01*
X152227142Y-100478971D02*
X152236666Y-100498019D01*
X152236666Y-100498019D02*
X152236666Y-100526590D01*
X152236666Y-100526590D02*
X152227142Y-100545638D01*
X152227142Y-100545638D02*
X152217619Y-100555161D01*
X152217619Y-100555161D02*
X152198571Y-100564685D01*
X152198571Y-100564685D02*
X152122381Y-100564685D01*
X152427142Y-100659923D02*
X152312857Y-100659923D01*
X152370000Y-100659923D02*
X152370000Y-100459923D01*
X152370000Y-100459923D02*
X152350952Y-100488495D01*
X152350952Y-100488495D02*
X152331904Y-100507542D01*
X152331904Y-100507542D02*
X152312857Y-100517066D01*
X152394798Y-102623876D02*
X152385274Y-102633400D01*
X152385274Y-102633400D02*
X152356703Y-102642923D01*
X152356703Y-102642923D02*
X152337655Y-102642923D01*
X152337655Y-102642923D02*
X152309084Y-102633400D01*
X152309084Y-102633400D02*
X152290036Y-102614352D01*
X152290036Y-102614352D02*
X152280513Y-102595304D01*
X152280513Y-102595304D02*
X152270989Y-102557209D01*
X152270989Y-102557209D02*
X152270989Y-102528638D01*
X152270989Y-102528638D02*
X152280513Y-102490542D01*
X152280513Y-102490542D02*
X152290036Y-102471495D01*
X152290036Y-102471495D02*
X152309084Y-102452447D01*
X152309084Y-102452447D02*
X152337655Y-102442923D01*
X152337655Y-102442923D02*
X152356703Y-102442923D01*
X152356703Y-102442923D02*
X152385274Y-102452447D01*
X152385274Y-102452447D02*
X152394798Y-102461971D01*
X152566227Y-102642923D02*
X152566227Y-102538161D01*
X152566227Y-102538161D02*
X152556703Y-102519114D01*
X152556703Y-102519114D02*
X152537655Y-102509590D01*
X152537655Y-102509590D02*
X152499560Y-102509590D01*
X152499560Y-102509590D02*
X152480513Y-102519114D01*
X152566227Y-102633400D02*
X152547179Y-102642923D01*
X152547179Y-102642923D02*
X152499560Y-102642923D01*
X152499560Y-102642923D02*
X152480513Y-102633400D01*
X152480513Y-102633400D02*
X152470989Y-102614352D01*
X152470989Y-102614352D02*
X152470989Y-102595304D01*
X152470989Y-102595304D02*
X152480513Y-102576257D01*
X152480513Y-102576257D02*
X152499560Y-102566733D01*
X152499560Y-102566733D02*
X152547179Y-102566733D01*
X152547179Y-102566733D02*
X152566227Y-102557209D01*
X152661465Y-102509590D02*
X152661465Y-102709590D01*
X152661465Y-102519114D02*
X152680512Y-102509590D01*
X152680512Y-102509590D02*
X152718607Y-102509590D01*
X152718607Y-102509590D02*
X152737655Y-102519114D01*
X152737655Y-102519114D02*
X152747179Y-102528638D01*
X152747179Y-102528638D02*
X152756703Y-102547685D01*
X152756703Y-102547685D02*
X152756703Y-102604828D01*
X152756703Y-102604828D02*
X152747179Y-102623876D01*
X152747179Y-102623876D02*
X152737655Y-102633400D01*
X152737655Y-102633400D02*
X152718607Y-102642923D01*
X152718607Y-102642923D02*
X152680512Y-102642923D01*
X152680512Y-102642923D02*
X152661465Y-102633400D01*
D13*
%TO.C,U1*%
X162275000Y-88885000D02*
X160625000Y-88885000D01*
X156975000Y-88885000D02*
X156975000Y-99165000D01*
X162275000Y-99165000D02*
X162275000Y-88885000D01*
X158625000Y-88885000D02*
X156975000Y-88885000D01*
X156975000Y-99165000D02*
X162275000Y-99165000D01*
X158625000Y-88885000D02*
G75*
G03*
X160625000Y-88885000I1000000J0D01*
G01*
%TD*%
M02*
