%TF.GenerationSoftware,KiCad,Pcbnew,7.0.6-0*%
%TF.CreationDate,2023-08-01T21:24:21-04:00*%
%TF.ProjectId,Light_Alarm,4c696768-745f-4416-9c61-726d2e6b6963,rev?*%
%TF.SameCoordinates,Original*%
%TF.FileFunction,Copper,L1,Top*%
%TF.FilePolarity,Positive*%
%FSLAX46Y46*%
G04 Gerber Fmt 4.6, Leading zero omitted, Abs format (unit mm)*
G04 Created by KiCad (PCBNEW 7.0.6-0) date 2023-08-01 21:24:21*
%MOMM*%
%LPD*%
G01*
G04 APERTURE LIST*
G04 Aperture macros list*
%AMRoundRect*
0 Rectangle with rounded corners*
0 $1 Rounding radius*
0 $2 $3 $4 $5 $6 $7 $8 $9 X,Y pos of 4 corners*
0 Add a 4 corners polygon primitive as box body*
4,1,4,$2,$3,$4,$5,$6,$7,$8,$9,$2,$3,0*
0 Add four circle primitives for the rounded corners*
1,1,$1+$1,$2,$3*
1,1,$1+$1,$4,$5*
1,1,$1+$1,$6,$7*
1,1,$1+$1,$8,$9*
0 Add four rect primitives between the rounded corners*
20,1,$1+$1,$2,$3,$4,$5,0*
20,1,$1+$1,$4,$5,$6,$7,0*
20,1,$1+$1,$6,$7,$8,$9,0*
20,1,$1+$1,$8,$9,$2,$3,0*%
%AMFreePoly0*
4,1,35,0.312797,1.099367,0.509479,1.023172,0.688811,0.912134,0.844687,0.770034,0.971798,0.601712,1.065816,0.412899,1.123538,0.210026,1.143000,0.000000,1.123538,-0.210026,1.065816,-0.412899,0.971798,-0.601712,0.844687,-0.770034,0.688811,-0.912134,0.509479,-1.023172,0.312797,-1.099367,0.105463,-1.138124,-0.105463,-1.138124,-0.312797,-1.099367,-0.509479,-1.023172,-0.688811,-0.912134,
-0.844687,-0.770034,-0.971798,-0.601712,-1.065816,-0.412899,-1.123538,-0.210026,-1.143000,0.000000,-1.123538,0.210026,-1.065816,0.412899,-0.971798,0.601712,-0.844687,0.770034,-0.688811,0.912134,-0.509479,1.023172,-0.312797,1.099367,-0.105463,1.138124,0.105463,1.138124,0.312797,1.099367,0.312797,1.099367,$1*%
G04 Aperture macros list end*
%TA.AperFunction,ComponentPad*%
%ADD10C,2.286000*%
%TD*%
%TA.AperFunction,SMDPad,CuDef*%
%ADD11RoundRect,0.381000X-0.762000X-0.381000X0.762000X-0.381000X0.762000X0.381000X-0.762000X0.381000X0*%
%TD*%
%TA.AperFunction,ComponentPad*%
%ADD12R,1.600000X1.600000*%
%TD*%
%TA.AperFunction,ComponentPad*%
%ADD13O,1.600000X1.600000*%
%TD*%
%TA.AperFunction,ComponentPad*%
%ADD14FreePoly0,0.000000*%
%TD*%
%TA.AperFunction,ViaPad*%
%ADD15C,0.800000*%
%TD*%
%TA.AperFunction,Conductor*%
%ADD16C,0.250000*%
%TD*%
G04 APERTURE END LIST*
D10*
%TO.P,U3,1,VCC*%
%TO.N,Net-(U1-XTAL1{slash}PB3)*%
X143865000Y-93980000D03*
%TO.P,U3,2,GND*%
%TO.N,Net-(U1-GND)*%
X151465000Y-93980000D03*
%TD*%
D11*
%TO.P,U2,1,VCC*%
%TO.N,Net-(U1-VCC)*%
X167640000Y-91440000D03*
%TO.P,U2,2,GND*%
%TO.N,Net-(U1-GND)*%
X167640000Y-96520000D03*
%TD*%
D12*
%TO.P,U1,1,~{RESET}/PB5*%
%TO.N,unconnected-(U1-~{RESET}{slash}PB5-Pad1)*%
X155815000Y-90215000D03*
D13*
%TO.P,U1,2,XTAL1/PB3*%
%TO.N,Net-(U1-XTAL1{slash}PB3)*%
X155815000Y-92755000D03*
%TO.P,U1,3,XTAL2/PB4*%
%TO.N,Net-(U1-XTAL2{slash}PB4)*%
X155815000Y-95295000D03*
%TO.P,U1,4,GND*%
%TO.N,Net-(U1-GND)*%
X155815000Y-97835000D03*
%TO.P,U1,5,AREF/PB0*%
%TO.N,unconnected-(U1-AREF{slash}PB0-Pad5)*%
X163435000Y-97835000D03*
%TO.P,U1,6,PB1*%
%TO.N,unconnected-(U1-PB1-Pad6)*%
X163435000Y-95295000D03*
%TO.P,U1,7,PB2*%
%TO.N,unconnected-(U1-PB2-Pad7)*%
X163435000Y-92755000D03*
%TO.P,U1,8,VCC*%
%TO.N,Net-(U1-VCC)*%
X163435000Y-90215000D03*
%TD*%
D14*
%TO.P,R2,1*%
%TO.N,Net-(U1-XTAL2{slash}PB4)*%
X158310000Y-101500000D03*
%TO.P,R2,2*%
%TO.N,Net-(U1-GND)*%
X166810000Y-101500000D03*
%TD*%
%TO.P,R1,1*%
%TO.N,Net-(U1-VCC)*%
X151000000Y-101600000D03*
%TO.P,R1,2*%
%TO.N,Net-(U1-XTAL2{slash}PB4)*%
X153540000Y-101600000D03*
%TD*%
D15*
%TO.N,Net-(U1-GND)*%
X154940000Y-99060000D03*
X152400000Y-96520000D03*
%TO.N,Net-(U1-XTAL2{slash}PB4)*%
X157480000Y-99060000D03*
%TD*%
D16*
%TO.N,Net-(U1-XTAL1{slash}PB3)*%
X143865000Y-93980000D02*
X145889999Y-91955001D01*
X145889999Y-91955001D02*
X155015001Y-91955001D01*
X155015001Y-91955001D02*
X155815000Y-92755000D01*
%TO.N,Net-(U1-GND)*%
X151465000Y-93980000D02*
X152400000Y-94915000D01*
X152400000Y-94915000D02*
X152400000Y-96520000D01*
X154940000Y-99060000D02*
X154940000Y-98710000D01*
X154940000Y-98710000D02*
X155815000Y-97835000D01*
X167640000Y-96520000D02*
X158261370Y-96520000D01*
X158261370Y-96520000D02*
X156946370Y-97835000D01*
X156946370Y-97835000D02*
X155815000Y-97835000D01*
%TO.N,Net-(U1-XTAL2{slash}PB4)*%
X157480000Y-100670000D02*
X157480000Y-99060000D01*
X158310000Y-101500000D02*
X157480000Y-100670000D01*
X158310000Y-101500000D02*
X153640000Y-101500000D01*
X153640000Y-101500000D02*
X153540000Y-101600000D01*
%TO.N,Net-(U1-GND)*%
X167640000Y-96520000D02*
X166810000Y-97350000D01*
X166810000Y-97350000D02*
X166810000Y-101500000D01*
%TO.N,Net-(U1-VCC)*%
X163435000Y-90215000D02*
X156940000Y-96710000D01*
X151000000Y-100460000D02*
X151000000Y-101600000D01*
X156940000Y-96710000D02*
X154750000Y-96710000D01*
X154750000Y-96710000D02*
X151000000Y-100460000D01*
X167640000Y-91440000D02*
X166415000Y-90215000D01*
X166415000Y-90215000D02*
X163435000Y-90215000D01*
%TD*%
M02*
