M48
; DRILL file {KiCad 7.0.6-0} date 2023 September 04, Monday 19:04:04
; FORMAT={-:-/ absolute / inch / decimal}
; #@! TF.CreationDate,2023-09-04T19:04:04-04:00
; #@! TF.GenerationSoftware,Kicad,Pcbnew,7.0.6-0
; #@! TF.FileFunction,Plated,1,2,PTH
FMAT,2
INCH
; #@! TA.AperFunction,Plated,PTH,ViaDrill
T1C0.0157
; #@! TA.AperFunction,Plated,PTH,ComponentDrill
T2C0.0295
; #@! TA.AperFunction,Plated,PTH,ComponentDrill
T3C0.0315
; #@! TA.AperFunction,Plated,PTH,ComponentDrill
T4C0.0394
; #@! TA.AperFunction,Plated,PTH,ComponentDrill
T5C0.0433
%
G90
G05
T1
X5.7665Y-4.4726
X5.7934Y-4.2934
X5.8Y-4.2
X5.9Y-4.2
X5.9Y-4.3
X5.9995Y-4.4398
X6.0Y-4.4
X6.1202Y-4.3798
X6.2Y-4.2
X6.2202Y-4.4202
X6.3Y-4.2002
X6.3068Y-4.1138
X6.3571Y-4.5
T2
X6.1024Y-4.3
X6.1524Y-4.3
X6.2024Y-4.3
T3
X5.6894Y-3.9843
X5.6894Y-4.0843
X5.6894Y-4.1843
X5.6894Y-4.2843
X5.9894Y-3.9843
X5.9894Y-4.0843
X5.9894Y-4.1843
X5.9894Y-4.2843
T4
X6.0Y-4.5
X6.1Y-4.5
X6.2Y-4.5
X6.3Y-4.5
T5
X5.7087Y-4.4185
X5.7087Y-4.5268
X5.8087Y-4.4185
X5.8087Y-4.5268
X6.1799Y-4.0571
X6.2799Y-4.0571
X6.3799Y-4.0571
T0
M30
