%TF.GenerationSoftware,KiCad,Pcbnew,7.0.6-0*%
%TF.CreationDate,2023-09-04T19:04:00-04:00*%
%TF.ProjectId,Hapto_MK_2,48617074-6f5f-44d4-9b5f-322e6b696361,rev?*%
%TF.SameCoordinates,Original*%
%TF.FileFunction,Copper,L2,Bot*%
%TF.FilePolarity,Positive*%
%FSLAX46Y46*%
G04 Gerber Fmt 4.6, Leading zero omitted, Abs format (unit mm)*
G04 Created by KiCad (PCBNEW 7.0.6-0) date 2023-09-04 19:04:00*
%MOMM*%
%LPD*%
G01*
G04 APERTURE LIST*
G04 Aperture macros list*
%AMFreePoly0*
4,1,35,0.312797,1.099367,0.509479,1.023172,0.688811,0.912134,0.844687,0.770034,0.971798,0.601712,1.065816,0.412899,1.123538,0.210026,1.143000,0.000000,1.123538,-0.210026,1.065816,-0.412899,0.971798,-0.601712,0.844687,-0.770034,0.688811,-0.912134,0.509479,-1.023172,0.312797,-1.099367,0.105463,-1.138124,-0.105463,-1.138124,-0.312797,-1.099367,-0.509479,-1.023172,-0.688811,-0.912134,
-0.844687,-0.770034,-0.971798,-0.601712,-1.065816,-0.412899,-1.123538,-0.210026,-1.143000,0.000000,-1.123538,0.210026,-1.065816,0.412899,-0.971798,0.601712,-0.844687,0.770034,-0.688811,0.912134,-0.509479,1.023172,-0.312797,1.099367,-0.105463,1.138124,0.105463,1.138124,0.312797,1.099367,0.312797,1.099367,$1*%
G04 Aperture macros list end*
%TA.AperFunction,ComponentPad*%
%ADD10R,1.905000X2.000000*%
%TD*%
%TA.AperFunction,ComponentPad*%
%ADD11O,1.905000X2.000000*%
%TD*%
%TA.AperFunction,ComponentPad*%
%ADD12R,1.600000X1.600000*%
%TD*%
%TA.AperFunction,ComponentPad*%
%ADD13O,1.600000X1.600000*%
%TD*%
%TA.AperFunction,ComponentPad*%
%ADD14FreePoly0,0.000000*%
%TD*%
%TA.AperFunction,ComponentPad*%
%ADD15R,1.050000X1.500000*%
%TD*%
%TA.AperFunction,ComponentPad*%
%ADD16O,1.050000X1.500000*%
%TD*%
%TA.AperFunction,ComponentPad*%
%ADD17R,1.700000X1.700000*%
%TD*%
%TA.AperFunction,ComponentPad*%
%ADD18O,1.700000X1.700000*%
%TD*%
%TA.AperFunction,ViaPad*%
%ADD19C,0.800000*%
%TD*%
%TA.AperFunction,Conductor*%
%ADD20C,0.250000*%
%TD*%
G04 APERTURE END LIST*
D10*
%TO.P,U3,1,VI*%
%TO.N,Net-(U3-VI)*%
X156970000Y-103050000D03*
D11*
%TO.P,U3,2,GND*%
%TO.N,Net-(Q1-E)*%
X159510000Y-103050000D03*
%TO.P,U3,3,VO*%
%TO.N,Net-(U1-VCC)*%
X162050000Y-103050000D03*
%TD*%
D12*
%TO.P,U2,1,~{RESET}/PB5*%
%TO.N,unconnected-(U2-~{RESET}{slash}PB5-Pad1)*%
X144510000Y-101200000D03*
D13*
%TO.P,U2,2,XTAL1/PB3*%
%TO.N,Net-(U2-XTAL1{slash}PB3)*%
X144510000Y-103740000D03*
%TO.P,U2,3,XTAL2/PB4*%
%TO.N,Net-(U2-XTAL2{slash}PB4)*%
X144510000Y-106280000D03*
%TO.P,U2,4,GND*%
%TO.N,Net-(Q1-E)*%
X144510000Y-108820000D03*
%TO.P,U2,5,AREF/PB0*%
%TO.N,Net-(Q1-B)*%
X152130000Y-108820000D03*
%TO.P,U2,6,PB1*%
%TO.N,Net-(U2-PB1)*%
X152130000Y-106280000D03*
%TO.P,U2,7,PB2*%
%TO.N,unconnected-(U2-PB2-Pad7)*%
X152130000Y-103740000D03*
%TO.P,U2,8,VCC*%
%TO.N,Net-(U1-VCC)*%
X152130000Y-101200000D03*
%TD*%
D14*
%TO.P,C1,1*%
%TO.N,Net-(U3-VI)*%
X145000000Y-112230000D03*
%TO.P,C1,2*%
%TO.N,Net-(Q1-E)*%
X147540000Y-112230000D03*
%TD*%
D15*
%TO.P,Q1,1,C*%
%TO.N,Net-(Q1-C)*%
X155000000Y-109220000D03*
D16*
%TO.P,Q1,2,B*%
%TO.N,Net-(Q1-B)*%
X156270000Y-109220000D03*
%TO.P,Q1,3,E*%
%TO.N,Net-(Q1-E)*%
X157540000Y-109220000D03*
%TD*%
D17*
%TO.P,U5,1,VCC*%
%TO.N,Net-(U1-VCC)*%
X152400000Y-114300000D03*
D18*
%TO.P,U5,2,Trig*%
%TO.N,Net-(U2-XTAL1{slash}PB3)*%
X154940000Y-114300000D03*
%TO.P,U5,3,Echo*%
%TO.N,Net-(U2-XTAL2{slash}PB4)*%
X157480000Y-114300000D03*
%TO.P,U5,4,GND*%
%TO.N,Net-(Q1-E)*%
X160020000Y-114300000D03*
%TD*%
D14*
%TO.P,C2,1*%
%TO.N,Net-(U1-VCC)*%
X145000000Y-114980000D03*
%TO.P,C2,2*%
%TO.N,Net-(Q1-E)*%
X147540000Y-114980000D03*
%TD*%
D19*
%TO.N,Net-(Q1-E)*%
X157480000Y-106680000D03*
X147152701Y-109052701D03*
%TO.N,Net-(U1-VCC)*%
X160192014Y-104491617D03*
X160020000Y-106684500D03*
X152387452Y-112772051D03*
X146469781Y-113605117D03*
%TO.N,Net-(U2-XTAL2{slash}PB4)*%
X149860000Y-109220000D03*
X147320000Y-106680000D03*
%TO.N,Net-(U2-XTAL1{slash}PB3)*%
X152400000Y-111760000D03*
X149860000Y-106680000D03*
%TO.N,Net-(U2-PB1)*%
X157992300Y-112272300D03*
X155452300Y-111247700D03*
X161469503Y-114300000D03*
%TD*%
D20*
%TO.N,Net-(Q1-E)*%
X147152701Y-109052701D02*
X147540000Y-109440000D01*
X147540000Y-109440000D02*
X147540000Y-112230000D01*
X157480000Y-105080000D02*
X159510000Y-103050000D01*
X157480000Y-106680000D02*
X157480000Y-105080000D01*
%TO.N,Net-(U1-VCC)*%
X146469781Y-113605117D02*
X146376898Y-113698000D01*
X146376898Y-113698000D02*
X144391934Y-113698000D01*
X152387452Y-112772051D02*
X156467949Y-112772051D01*
X143532000Y-112838066D02*
X143532000Y-111621934D01*
X150260000Y-101200000D02*
X152130000Y-101200000D01*
X146595000Y-104865000D02*
X150260000Y-101200000D01*
X160192014Y-106512486D02*
X160020000Y-106684500D01*
X143532000Y-111621934D02*
X146595000Y-108558934D01*
X146595000Y-108558934D02*
X146595000Y-104865000D01*
X144391934Y-113698000D02*
X143532000Y-112838066D01*
X156467949Y-112772051D02*
X162050000Y-107190000D01*
X162050000Y-107190000D02*
X162050000Y-103050000D01*
X160192014Y-104491617D02*
X160192014Y-106512486D01*
%TO.N,Net-(U2-XTAL2{slash}PB4)*%
X149860000Y-109220000D02*
X147320000Y-106680000D01*
%TO.N,Net-(U2-XTAL1{slash}PB3)*%
X149860000Y-108140991D02*
X152400000Y-110680991D01*
X152400000Y-110680991D02*
X152400000Y-111760000D01*
X149860000Y-106680000D02*
X149860000Y-108140991D01*
%TO.N,Net-(U2-PB1)*%
X161469503Y-114087802D02*
X159654001Y-112272300D01*
X159654001Y-112272300D02*
X157992300Y-112272300D01*
X161469503Y-114300000D02*
X161469503Y-114087802D01*
X154150000Y-108300000D02*
X152130000Y-106280000D01*
X155452300Y-111247700D02*
X155102700Y-111247700D01*
X155102700Y-111247700D02*
X154150000Y-110295000D01*
X154150000Y-110295000D02*
X154150000Y-108300000D01*
%TD*%
M02*
