%TF.GenerationSoftware,KiCad,Pcbnew,7.0.6-0*%
%TF.CreationDate,2023-08-01T18:43:18-04:00*%
%TF.ProjectId,PIR_Sensor,5049525f-5365-46e7-936f-722e6b696361,rev?*%
%TF.SameCoordinates,Original*%
%TF.FileFunction,Copper,L1,Top*%
%TF.FilePolarity,Positive*%
%FSLAX46Y46*%
G04 Gerber Fmt 4.6, Leading zero omitted, Abs format (unit mm)*
G04 Created by KiCad (PCBNEW 7.0.6-0) date 2023-08-01 18:43:18*
%MOMM*%
%LPD*%
G01*
G04 APERTURE LIST*
G04 Aperture macros list*
%AMRoundRect*
0 Rectangle with rounded corners*
0 $1 Rounding radius*
0 $2 $3 $4 $5 $6 $7 $8 $9 X,Y pos of 4 corners*
0 Add a 4 corners polygon primitive as box body*
4,1,4,$2,$3,$4,$5,$6,$7,$8,$9,$2,$3,0*
0 Add four circle primitives for the rounded corners*
1,1,$1+$1,$2,$3*
1,1,$1+$1,$4,$5*
1,1,$1+$1,$6,$7*
1,1,$1+$1,$8,$9*
0 Add four rect primitives between the rounded corners*
20,1,$1+$1,$2,$3,$4,$5,0*
20,1,$1+$1,$4,$5,$6,$7,0*
20,1,$1+$1,$6,$7,$8,$9,0*
20,1,$1+$1,$8,$9,$2,$3,0*%
%AMFreePoly0*
4,1,35,0.312797,1.099367,0.509479,1.023172,0.688811,0.912134,0.844687,0.770034,0.971798,0.601712,1.065816,0.412899,1.123538,0.210026,1.143000,0.000000,1.123538,-0.210026,1.065816,-0.412899,0.971798,-0.601712,0.844687,-0.770034,0.688811,-0.912134,0.509479,-1.023172,0.312797,-1.099367,0.105463,-1.138124,-0.105463,-1.138124,-0.312797,-1.099367,-0.509479,-1.023172,-0.688811,-0.912134,
-0.844687,-0.770034,-0.971798,-0.601712,-1.065816,-0.412899,-1.123538,-0.210026,-1.143000,0.000000,-1.123538,0.210026,-1.065816,0.412899,-0.971798,0.601712,-0.844687,0.770034,-0.688811,0.912134,-0.509479,1.023172,-0.312797,1.099367,-0.105463,1.138124,0.105463,1.138124,0.312797,1.099367,0.312797,1.099367,$1*%
G04 Aperture macros list end*
%TA.AperFunction,ComponentPad*%
%ADD10R,1.800000X1.800000*%
%TD*%
%TA.AperFunction,ComponentPad*%
%ADD11C,1.800000*%
%TD*%
%TA.AperFunction,ComponentPad*%
%ADD12R,1.700000X1.700000*%
%TD*%
%TA.AperFunction,ComponentPad*%
%ADD13O,1.700000X1.700000*%
%TD*%
%TA.AperFunction,ComponentPad*%
%ADD14FreePoly0,0.000000*%
%TD*%
%TA.AperFunction,ComponentPad*%
%ADD15R,1.600000X1.600000*%
%TD*%
%TA.AperFunction,ComponentPad*%
%ADD16O,1.600000X1.600000*%
%TD*%
%TA.AperFunction,SMDPad,CuDef*%
%ADD17RoundRect,0.381000X-0.762000X-0.381000X0.762000X-0.381000X0.762000X0.381000X-0.762000X0.381000X0*%
%TD*%
%TA.AperFunction,ViaPad*%
%ADD18C,0.800000*%
%TD*%
%TA.AperFunction,Conductor*%
%ADD19C,0.250000*%
%TD*%
G04 APERTURE END LIST*
D10*
%TO.P,D1,1,K*%
%TO.N,Net-(D1-K)*%
X152400000Y-96520000D03*
D11*
%TO.P,D1,2,A*%
%TO.N,Net-(D1-A)*%
X154940000Y-96520000D03*
%TD*%
D12*
%TO.P,U3,1,VCC*%
%TO.N,Net-(U1-VCC)*%
X147000000Y-90000000D03*
D13*
%TO.P,U3,2,VOUT*%
%TO.N,Net-(U1-XTAL2{slash}PB4)*%
X149540000Y-90000000D03*
%TO.P,U3,3,GND*%
%TO.N,Net-(D1-K)*%
X152080000Y-90000000D03*
%TD*%
D14*
%TO.P,R1,1*%
%TO.N,Net-(U1-AREF{slash}PB0)*%
X145610000Y-104730000D03*
%TO.P,R1,2*%
%TO.N,Net-(D1-A)*%
X154110000Y-104730000D03*
%TD*%
D15*
%TO.P,U1,1,~{RESET}/PB5*%
%TO.N,unconnected-(U1-~{RESET}{slash}PB5-Pad1)*%
X142000000Y-93730000D03*
D16*
%TO.P,U1,2,XTAL1/PB3*%
%TO.N,unconnected-(U1-XTAL1{slash}PB3-Pad2)*%
X142000000Y-96270000D03*
%TO.P,U1,3,XTAL2/PB4*%
%TO.N,Net-(U1-XTAL2{slash}PB4)*%
X142000000Y-98810000D03*
%TO.P,U1,4,GND*%
%TO.N,Net-(D1-K)*%
X142000000Y-101350000D03*
%TO.P,U1,5,AREF/PB0*%
%TO.N,Net-(U1-AREF{slash}PB0)*%
X149620000Y-101350000D03*
%TO.P,U1,6,PB1*%
%TO.N,unconnected-(U1-PB1-Pad6)*%
X149620000Y-98810000D03*
%TO.P,U1,7,PB2*%
%TO.N,unconnected-(U1-PB2-Pad7)*%
X149620000Y-96270000D03*
%TO.P,U1,8,VCC*%
%TO.N,Net-(U1-VCC)*%
X149620000Y-93730000D03*
%TD*%
D17*
%TO.P,U2,1,VCC*%
%TO.N,Net-(U1-VCC)*%
X158340000Y-93980000D03*
%TO.P,U2,2,GND*%
%TO.N,Net-(D1-K)*%
X158340000Y-99060000D03*
%TD*%
D18*
%TO.N,Net-(D1-K)*%
X152400000Y-99060000D03*
X155664500Y-99060000D03*
X152400000Y-94454500D03*
X152080000Y-93005500D03*
%TO.N,Net-(U1-XTAL2{slash}PB4)*%
X149860000Y-91440000D03*
X147320000Y-93980000D03*
%TD*%
D19*
%TO.N,Net-(D1-K)*%
X152080000Y-90000000D02*
X152080000Y-93005500D01*
X142000000Y-101350000D02*
X145945001Y-97404999D01*
X152400000Y-94454500D02*
X152400000Y-96520000D01*
X151515001Y-97404999D02*
X152400000Y-96520000D01*
X152400000Y-99060000D02*
X152400000Y-96520000D01*
X145945001Y-97404999D02*
X151515001Y-97404999D01*
X158340000Y-99060000D02*
X155664500Y-99060000D01*
%TO.N,Net-(D1-A)*%
X154940000Y-103900000D02*
X154110000Y-104730000D01*
X154940000Y-96520000D02*
X154940000Y-103900000D01*
%TO.N,Net-(U1-XTAL2{slash}PB4)*%
X142000000Y-98810000D02*
X146830000Y-93980000D01*
X146830000Y-93980000D02*
X147320000Y-93980000D01*
X149860000Y-90320000D02*
X149540000Y-90000000D01*
X149860000Y-91440000D02*
X149860000Y-90320000D01*
%TO.N,Net-(U1-VCC)*%
X147000000Y-91110000D02*
X147000000Y-90000000D01*
X158340000Y-93980000D02*
X158090000Y-93730000D01*
X149620000Y-93730000D02*
X147000000Y-91110000D01*
X158090000Y-93730000D02*
X149620000Y-93730000D01*
%TO.N,Net-(U1-AREF{slash}PB0)*%
X148990000Y-101350000D02*
X149620000Y-101350000D01*
X145610000Y-104730000D02*
X148990000Y-101350000D01*
%TD*%
M02*
