M48
; DRILL file {KiCad 7.0.6-0} date 2023 August 01, Tuesday 18:43:21
; FORMAT={-:-/ absolute / inch / decimal}
; #@! TF.CreationDate,2023-08-01T18:43:21-04:00
; #@! TF.GenerationSoftware,Kicad,Pcbnew,7.0.6-0
; #@! TF.FileFunction,Plated,1,2,PTH
FMAT,2
INCH
; #@! TA.AperFunction,Plated,PTH,ViaDrill
T1C0.0157
; #@! TA.AperFunction,Plated,PTH,ComponentDrill
T2C0.0315
; #@! TA.AperFunction,Plated,PTH,ComponentDrill
T3C0.0354
; #@! TA.AperFunction,Plated,PTH,ComponentDrill
T4C0.0394
; #@! TA.AperFunction,Plated,PTH,ComponentDrill
T5C0.0433
%
G90
G05
T1
X5.8Y-3.7
X5.9Y-3.6
X5.9874Y-3.6616
X6.0Y-3.7187
X6.0Y-3.9
X6.1285Y-3.9
T2
X5.5906Y-3.6902
X5.5906Y-3.7902
X5.5906Y-3.8902
X5.5906Y-3.9902
X5.8906Y-3.6902
X5.8906Y-3.7902
X5.8906Y-3.8902
X5.8906Y-3.9902
T3
X6.0Y-3.8
X6.1Y-3.8
T4
X5.7874Y-3.5433
X5.8874Y-3.5433
X5.9874Y-3.5433
T5
X5.7327Y-4.1232
X6.0673Y-4.1232
T0
M30
