M48
; DRILL file {KiCad 7.0.6-0} date 2023 July 26, Wednesday 14:31:44
; FORMAT={-:-/ absolute / inch / decimal}
; #@! TF.CreationDate,2023-07-26T14:31:44-04:00
; #@! TF.GenerationSoftware,Kicad,Pcbnew,7.0.6-0
; #@! TF.FileFunction,Plated,1,2,PTH
FMAT,2
INCH
; #@! TA.AperFunction,Plated,PTH,ViaDrill
T1C0.0157
; #@! TA.AperFunction,Plated,PTH,ComponentDrill
T2C0.0295
; #@! TA.AperFunction,Plated,PTH,ComponentDrill
T3C0.0315
; #@! TA.AperFunction,Plated,PTH,ComponentDrill
T4C0.0433
%
G90
G05
T1
X5.1Y-4.421
X5.3Y-4.2
X5.3615Y-3.8615
X5.4019Y-3.9019
X5.6Y-4.3
X5.6Y-4.4
X5.8Y-4.4
T2
X5.2Y-4.2
X5.2Y-4.25
X5.2Y-4.3
T3
X5.4Y-4.0
X5.4Y-4.1
X5.4Y-4.2
X5.4Y-4.3
X5.7Y-4.0
X5.7Y-4.1
X5.7Y-4.2
X5.7Y-4.3
T4
X4.8713Y-4.0327
X4.8713Y-4.3673
X4.9961Y-4.0
X4.9961Y-4.3346
X5.0327Y-4.4961
X5.2327Y-3.6961
X5.3673Y-4.4961
X5.5673Y-3.6961
T0
M30
