M48
; DRILL file {KiCad 7.0.6-0} date 2023 July 24, Monday 12:55:57
; FORMAT={-:-/ absolute / inch / decimal}
; #@! TF.CreationDate,2023-07-24T12:55:57-04:00
; #@! TF.GenerationSoftware,Kicad,Pcbnew,7.0.6-0
; #@! TF.FileFunction,Plated,1,2,PTH
FMAT,2
INCH
; #@! TA.AperFunction,Plated,PTH,ViaDrill
T1C0.0157
; #@! TA.AperFunction,Plated,PTH,ComponentDrill
T2C0.0315
; #@! TA.AperFunction,Plated,PTH,ComponentDrill
T3C0.0433
%
G90
G05
T1
X5.0798Y-4.0202
X5.1Y-4.6206
X5.1485Y-4.0009
X5.2Y-3.5943
X5.4Y-4.3
X5.5Y-4.4045
X5.5464Y-4.3928
X5.6Y-4.3
X5.6114Y-4.2482
X5.628Y-4.3276
X5.6981Y-4.5019
X5.7012Y-4.4001
X5.8Y-4.5
X5.8Y-4.7
T2
X5.0Y-4.4
X5.0Y-4.5921
X5.2Y-3.6494
X5.2Y-3.7494
X5.2Y-3.8494
X5.2Y-3.9494
X5.2Y-4.0494
X5.2Y-4.1494
X5.2Y-4.2494
X5.2Y-4.3494
X5.2Y-4.4494
X5.2Y-4.5494
X5.2Y-4.6494
X5.2Y-4.7494
X5.2Y-4.8494
X5.2Y-4.9494
X5.5Y-3.6494
X5.5Y-3.7494
X5.5Y-3.8494
X5.5Y-3.9494
X5.5Y-4.0494
X5.5Y-4.1494
X5.5Y-4.2494
X5.5Y-4.3494
X5.5Y-4.4494
X5.5Y-4.5494
X5.5Y-4.6494
X5.5Y-4.7494
X5.5Y-4.8494
X5.5Y-4.9494
T3
X4.9606Y-4.8122
X4.9606Y-4.95
X5.0606Y-4.8122
X5.0606Y-4.95
X5.1654Y-3.5
X5.5Y-3.5
X5.6327Y-4.3961
X5.6327Y-4.5961
X5.7039Y-4.7327
X5.7039Y-5.0673
X5.85Y-4.8
X5.85Y-4.9
X5.9673Y-4.3961
X5.9673Y-4.5961
T0
M30
