M48
; DRILL file {KiCad 7.0.6-0} date 2023 August 03, Thursday 16:52:41
; FORMAT={-:-/ absolute / inch / decimal}
; #@! TF.CreationDate,2023-08-03T16:52:41-04:00
; #@! TF.GenerationSoftware,Kicad,Pcbnew,7.0.6-0
; #@! TF.FileFunction,Plated,1,2,PTH
FMAT,2
INCH
; #@! TA.AperFunction,Plated,PTH,ViaDrill
T1C0.0157
; #@! TA.AperFunction,Plated,PTH,ComponentDrill
T2C0.0315
; #@! TA.AperFunction,Plated,PTH,ComponentDrill
T3C0.0354
; #@! TA.AperFunction,Plated,PTH,ComponentDrill
T4C0.0433
%
G90
G05
T1
X5.9Y-3.8715
X6.0Y-4.0
X6.1Y-4.2
X6.2Y-4.1187
X6.3Y-4.1
T2
X6.1303Y-3.7902
X6.1303Y-3.8902
X6.1303Y-3.9902
X6.1303Y-4.0902
X6.4303Y-3.7902
X6.4303Y-3.8902
X6.4303Y-3.9902
X6.4303Y-4.0902
T3
X6.5535Y-3.8
X6.5535Y-4.1
X6.6535Y-3.8
X6.6535Y-4.1
T4
X5.6654Y-3.9
X5.6672Y-4.0825
X5.6685Y-4.2232
X6.0Y-3.9
X6.0019Y-4.0825
X6.0031Y-4.2232
X6.0654Y-4.3988
X6.2Y-4.2232
X6.3Y-4.2232
X6.4Y-4.3988
X6.8039Y-3.9787
X6.8039Y-4.3134
X7.0039Y-3.9787
X7.0039Y-4.3134
T0
M30
