%TF.GenerationSoftware,KiCad,Pcbnew,7.0.6-0*%
%TF.CreationDate,2023-08-03T16:52:38-04:00*%
%TF.ProjectId,Temp_Alarm,54656d70-5f41-46c6-9172-6d2e6b696361,rev?*%
%TF.SameCoordinates,Original*%
%TF.FileFunction,Copper,L1,Top*%
%TF.FilePolarity,Positive*%
%FSLAX46Y46*%
G04 Gerber Fmt 4.6, Leading zero omitted, Abs format (unit mm)*
G04 Created by KiCad (PCBNEW 7.0.6-0) date 2023-08-03 16:52:38*
%MOMM*%
%LPD*%
G01*
G04 APERTURE LIST*
G04 Aperture macros list*
%AMRoundRect*
0 Rectangle with rounded corners*
0 $1 Rounding radius*
0 $2 $3 $4 $5 $6 $7 $8 $9 X,Y pos of 4 corners*
0 Add a 4 corners polygon primitive as box body*
4,1,4,$2,$3,$4,$5,$6,$7,$8,$9,$2,$3,0*
0 Add four circle primitives for the rounded corners*
1,1,$1+$1,$2,$3*
1,1,$1+$1,$4,$5*
1,1,$1+$1,$6,$7*
1,1,$1+$1,$8,$9*
0 Add four rect primitives between the rounded corners*
20,1,$1+$1,$2,$3,$4,$5,0*
20,1,$1+$1,$4,$5,$6,$7,0*
20,1,$1+$1,$6,$7,$8,$9,0*
20,1,$1+$1,$8,$9,$2,$3,0*%
%AMFreePoly0*
4,1,35,0.312797,1.099367,0.509479,1.023172,0.688811,0.912134,0.844687,0.770034,0.971798,0.601712,1.065816,0.412899,1.123538,0.210026,1.143000,0.000000,1.123538,-0.210026,1.065816,-0.412899,0.971798,-0.601712,0.844687,-0.770034,0.688811,-0.912134,0.509479,-1.023172,0.312797,-1.099367,0.105463,-1.138124,-0.105463,-1.138124,-0.312797,-1.099367,-0.509479,-1.023172,-0.688811,-0.912134,
-0.844687,-0.770034,-0.971798,-0.601712,-1.065816,-0.412899,-1.123538,-0.210026,-1.143000,0.000000,-1.123538,0.210026,-1.065816,0.412899,-0.971798,0.601712,-0.844687,0.770034,-0.688811,0.912134,-0.509479,1.023172,-0.312797,1.099367,-0.105463,1.138124,0.105463,1.138124,0.312797,1.099367,0.312797,1.099367,$1*%
G04 Aperture macros list end*
%TA.AperFunction,ComponentPad*%
%ADD10FreePoly0,180.000000*%
%TD*%
%TA.AperFunction,SMDPad,CuDef*%
%ADD11RoundRect,0.381000X0.381000X-0.762000X0.381000X0.762000X-0.381000X0.762000X-0.381000X-0.762000X0*%
%TD*%
%TA.AperFunction,ComponentPad*%
%ADD12R,1.600000X1.600000*%
%TD*%
%TA.AperFunction,ComponentPad*%
%ADD13O,1.600000X1.600000*%
%TD*%
%TA.AperFunction,ComponentPad*%
%ADD14FreePoly0,270.000000*%
%TD*%
%TA.AperFunction,ComponentPad*%
%ADD15FreePoly0,0.000000*%
%TD*%
%TA.AperFunction,ComponentPad*%
%ADD16R,1.800000X1.800000*%
%TD*%
%TA.AperFunction,ComponentPad*%
%ADD17C,1.800000*%
%TD*%
%TA.AperFunction,ViaPad*%
%ADD18C,0.800000*%
%TD*%
%TA.AperFunction,Conductor*%
%ADD19C,0.250000*%
%TD*%
G04 APERTURE END LIST*
D10*
%TO.P,R4,2*%
%TO.N,Net-(U1-GND)*%
X143980000Y-107270000D03*
%TO.P,R4,1*%
%TO.N,Net-(R3-Pad2)*%
X152480000Y-107270000D03*
%TD*%
D11*
%TO.P,U2,1,VCC*%
%TO.N,Net-(U2-VCC)*%
X144780000Y-95640000D03*
%TO.P,U2,2,GND*%
%TO.N,Net-(U1-GND)*%
X149860000Y-95640000D03*
%TD*%
D12*
%TO.P,U1,1,~{RESET}/PB5*%
%TO.N,unconnected-(U1-~{RESET}{slash}PB5-Pad1)*%
X155710000Y-96270000D03*
D13*
%TO.P,U1,2,XTAL1/PB3*%
%TO.N,unconnected-(U1-XTAL1{slash}PB3-Pad2)*%
X155710000Y-98810000D03*
%TO.P,U1,3,XTAL2/PB4*%
%TO.N,Net-(U1-XTAL2{slash}PB4)*%
X155710000Y-101350000D03*
%TO.P,U1,4,GND*%
%TO.N,Net-(U1-GND)*%
X155710000Y-103890000D03*
%TO.P,U1,5,AREF/PB0*%
%TO.N,Net-(D1-A)*%
X163330000Y-103890000D03*
%TO.P,U1,6,PB1*%
%TO.N,unconnected-(U1-PB1-Pad6)*%
X163330000Y-101350000D03*
%TO.P,U1,7,PB2*%
%TO.N,Net-(D2-A)*%
X163330000Y-98810000D03*
%TO.P,U1,8,VCC*%
%TO.N,Net-(U1-VCC)*%
X163330000Y-96270000D03*
%TD*%
D10*
%TO.P,TH1,2*%
%TO.N,Net-(U1-XTAL2{slash}PB4)*%
X157480000Y-107270000D03*
%TO.P,TH1,1*%
%TO.N,Net-(U1-VCC)*%
X160020000Y-107270000D03*
%TD*%
D14*
%TO.P,R6,1*%
%TO.N,Net-(D1-K)*%
X172820000Y-101060000D03*
%TO.P,R6,2*%
%TO.N,Net-(U1-GND)*%
X172820000Y-109560000D03*
%TD*%
%TO.P,R5,2*%
%TO.N,Net-(U1-GND)*%
X177900000Y-109560000D03*
%TO.P,R5,1*%
%TO.N,Net-(D2-K)*%
X177900000Y-101060000D03*
%TD*%
D15*
%TO.P,R3,1*%
%TO.N,Net-(U1-VCC)*%
X143948000Y-103695000D03*
%TO.P,R3,2*%
%TO.N,Net-(R3-Pad2)*%
X152448000Y-103695000D03*
%TD*%
D10*
%TO.P,R2,1*%
%TO.N,Net-(U1-VCC)*%
X152400000Y-99060000D03*
%TO.P,R2,2*%
%TO.N,Net-(U2-VCC)*%
X143900000Y-99060000D03*
%TD*%
D15*
%TO.P,R1,1*%
%TO.N,Net-(U1-XTAL2{slash}PB4)*%
X154060000Y-111730000D03*
%TO.P,R1,2*%
%TO.N,Net-(U1-GND)*%
X162560000Y-111730000D03*
%TD*%
D16*
%TO.P,D2,1,K*%
%TO.N,Net-(D2-K)*%
X169000000Y-96520000D03*
D17*
%TO.P,D2,2,A*%
%TO.N,Net-(D2-A)*%
X166460000Y-96520000D03*
%TD*%
D16*
%TO.P,D1,1,K*%
%TO.N,Net-(D1-K)*%
X169000000Y-104140000D03*
D17*
%TO.P,D1,2,A*%
%TO.N,Net-(D1-A)*%
X166460000Y-104140000D03*
%TD*%
D18*
%TO.N,Net-(U1-GND)*%
X152400000Y-101600000D03*
X149860000Y-98335500D03*
%TO.N,Net-(U1-XTAL2{slash}PB4)*%
X157480000Y-104614500D03*
%TO.N,Net-(U1-VCC)*%
X160020000Y-104140000D03*
%TO.N,Net-(R3-Pad2)*%
X154940000Y-106680000D03*
%TD*%
D19*
%TO.N,Net-(U1-GND)*%
X153420000Y-101600000D02*
X155710000Y-103890000D01*
X149860000Y-95640000D02*
X149860000Y-98335500D01*
X152400000Y-101600000D02*
X153420000Y-101600000D01*
%TO.N,Net-(U2-VCC)*%
X144780000Y-95640000D02*
X143900000Y-96520000D01*
X143900000Y-96520000D02*
X143900000Y-99060000D01*
%TO.N,Net-(U1-XTAL2{slash}PB4)*%
X157480000Y-107270000D02*
X154060000Y-110690000D01*
X154060000Y-110690000D02*
X154060000Y-111730000D01*
X157480000Y-107270000D02*
X157480000Y-104614500D01*
%TO.N,Net-(U1-VCC)*%
X160020000Y-99580000D02*
X160020000Y-104140000D01*
X163330000Y-96270000D02*
X160020000Y-99580000D01*
%TO.N,Net-(D1-K)*%
X169000000Y-104140000D02*
X169740000Y-104140000D01*
X169740000Y-104140000D02*
X172820000Y-101060000D01*
%TO.N,Net-(D1-A)*%
X163330000Y-103890000D02*
X166210000Y-103890000D01*
X166210000Y-103890000D02*
X166460000Y-104140000D01*
%TO.N,Net-(D2-K)*%
X169000000Y-96520000D02*
X173360000Y-96520000D01*
X173360000Y-96520000D02*
X177900000Y-101060000D01*
%TO.N,Net-(D2-A)*%
X163330000Y-98810000D02*
X165620000Y-96520000D01*
X165620000Y-96520000D02*
X166460000Y-96520000D01*
%TO.N,Net-(U1-VCC)*%
X152400000Y-99060000D02*
X154065000Y-97395000D01*
X154065000Y-97395000D02*
X162205000Y-97395000D01*
X162205000Y-97395000D02*
X163330000Y-96270000D01*
X143948000Y-103695000D02*
X148583000Y-99060000D01*
X148583000Y-99060000D02*
X152400000Y-99060000D01*
%TO.N,Net-(R3-Pad2)*%
X154350000Y-107270000D02*
X154940000Y-106680000D01*
X152480000Y-107270000D02*
X154350000Y-107270000D01*
%TO.N,Net-(U1-GND)*%
X150450000Y-95050000D02*
X149860000Y-95640000D01*
X155710000Y-103890000D02*
X154437000Y-105163000D01*
X154437000Y-105163000D02*
X146087000Y-105163000D01*
X146087000Y-105163000D02*
X143980000Y-107270000D01*
X162560000Y-111730000D02*
X162560000Y-107733934D01*
X158716066Y-103890000D02*
X155710000Y-103890000D01*
X162560000Y-107733934D02*
X158716066Y-103890000D01*
X172820000Y-109560000D02*
X177900000Y-109560000D01*
X162560000Y-111730000D02*
X170650000Y-111730000D01*
X170650000Y-111730000D02*
X172820000Y-109560000D01*
%TD*%
M02*
