%TF.GenerationSoftware,KiCad,Pcbnew,7.0.6-0*%
%TF.CreationDate,2023-07-24T12:55:40-04:00*%
%TF.ProjectId,Test_1_V1,54657374-5f31-45f5-9631-2e6b69636164,rev?*%
%TF.SameCoordinates,Original*%
%TF.FileFunction,Copper,L1,Top*%
%TF.FilePolarity,Positive*%
%FSLAX46Y46*%
G04 Gerber Fmt 4.6, Leading zero omitted, Abs format (unit mm)*
G04 Created by KiCad (PCBNEW 7.0.6-0) date 2023-07-24 12:55:40*
%MOMM*%
%LPD*%
G01*
G04 APERTURE LIST*
G04 Aperture macros list*
%AMRoundRect*
0 Rectangle with rounded corners*
0 $1 Rounding radius*
0 $2 $3 $4 $5 $6 $7 $8 $9 X,Y pos of 4 corners*
0 Add a 4 corners polygon primitive as box body*
4,1,4,$2,$3,$4,$5,$6,$7,$8,$9,$2,$3,0*
0 Add four circle primitives for the rounded corners*
1,1,$1+$1,$2,$3*
1,1,$1+$1,$4,$5*
1,1,$1+$1,$6,$7*
1,1,$1+$1,$8,$9*
0 Add four rect primitives between the rounded corners*
20,1,$1+$1,$2,$3,$4,$5,0*
20,1,$1+$1,$4,$5,$6,$7,0*
20,1,$1+$1,$6,$7,$8,$9,0*
20,1,$1+$1,$8,$9,$2,$3,0*%
%AMFreePoly0*
4,1,35,0.312797,1.099367,0.509479,1.023172,0.688811,0.912134,0.844687,0.770034,0.971798,0.601712,1.065816,0.412899,1.123538,0.210026,1.143000,0.000000,1.123538,-0.210026,1.065816,-0.412899,0.971798,-0.601712,0.844687,-0.770034,0.688811,-0.912134,0.509479,-1.023172,0.312797,-1.099367,0.105463,-1.138124,-0.105463,-1.138124,-0.312797,-1.099367,-0.509479,-1.023172,-0.688811,-0.912134,
-0.844687,-0.770034,-0.971798,-0.601712,-1.065816,-0.412899,-1.123538,-0.210026,-1.143000,0.000000,-1.123538,0.210026,-1.065816,0.412899,-0.971798,0.601712,-0.844687,0.770034,-0.688811,0.912134,-0.509479,1.023172,-0.312797,1.099367,-0.105463,1.138124,0.105463,1.138124,0.312797,1.099367,0.312797,1.099367,$1*%
G04 Aperture macros list end*
%TA.AperFunction,ComponentPad*%
%ADD10FreePoly0,0.000000*%
%TD*%
%TA.AperFunction,ComponentPad*%
%ADD11FreePoly0,270.000000*%
%TD*%
%TA.AperFunction,ComponentPad*%
%ADD12C,1.500000*%
%TD*%
%TA.AperFunction,ComponentPad*%
%ADD13R,1.600000X1.600000*%
%TD*%
%TA.AperFunction,ComponentPad*%
%ADD14O,1.600000X1.600000*%
%TD*%
%TA.AperFunction,SMDPad,CuDef*%
%ADD15RoundRect,0.381000X-0.762000X-0.381000X0.762000X-0.381000X0.762000X0.381000X-0.762000X0.381000X0*%
%TD*%
%TA.AperFunction,ViaPad*%
%ADD16C,0.800000*%
%TD*%
%TA.AperFunction,Conductor*%
%ADD17C,0.250000*%
%TD*%
G04 APERTURE END LIST*
D10*
%TO.P,R3,1*%
%TO.N,Earth*%
X143070000Y-111660000D03*
%TO.P,R3,2*%
%TO.N,Net-(R2-Pad2)*%
X151570000Y-111660000D03*
%TD*%
D11*
%TO.P,C1,1*%
%TO.N,Net-(U1-AVCC)*%
X148590000Y-121920000D03*
%TO.P,C1,2*%
%TO.N,Earth*%
X148590000Y-124460000D03*
%TD*%
D12*
%TO.P,16MHz1,1,1*%
%TO.N,Net-(U1-XTAL2{slash}PB7)*%
X127000000Y-116640000D03*
%TO.P,16MHz1,2,2*%
%TO.N,Net-(U1-XTAL1{slash}PB6)*%
X127000000Y-111760000D03*
%TD*%
D10*
%TO.P,C2,1*%
%TO.N,Net-(U1-XTAL1{slash}PB6)*%
X126000000Y-125730000D03*
%TO.P,C2,2*%
%TO.N,Earth*%
X128540000Y-125730000D03*
%TD*%
%TO.P,C3,1*%
%TO.N,Net-(U1-XTAL2{slash}PB7)*%
X126000000Y-122230000D03*
%TO.P,C3,2*%
%TO.N,Earth*%
X128540000Y-122230000D03*
%TD*%
%TO.P,R2,1*%
%TO.N,Net-(U1-AVCC)*%
X143070000Y-116740000D03*
%TO.P,R2,2*%
%TO.N,Net-(R2-Pad2)*%
X151570000Y-116740000D03*
%TD*%
D13*
%TO.P,U1,1,~{RESET}/PC6*%
%TO.N,Net-(U1-~{RESET}{slash}PC6)*%
X132080000Y-92695000D03*
D14*
%TO.P,U1,2,PD0*%
%TO.N,unconnected-(U1-PD0-Pad2)*%
X132080000Y-95235000D03*
%TO.P,U1,3,PD1*%
%TO.N,unconnected-(U1-PD1-Pad3)*%
X132080000Y-97775000D03*
%TO.P,U1,4,PD2*%
%TO.N,Net-(U1-PD2)*%
X132080000Y-100315000D03*
%TO.P,U1,5,PD3*%
%TO.N,Net-(U1-PD3)*%
X132080000Y-102855000D03*
%TO.P,U1,6,PD4*%
%TO.N,unconnected-(U1-PD4-Pad6)*%
X132080000Y-105395000D03*
%TO.P,U1,7,VCC*%
%TO.N,Net-(U1-AVCC)*%
X132080000Y-107935000D03*
%TO.P,U1,8,GND*%
%TO.N,Earth*%
X132080000Y-110475000D03*
%TO.P,U1,9,XTAL1/PB6*%
%TO.N,Net-(U1-XTAL1{slash}PB6)*%
X132080000Y-113015000D03*
%TO.P,U1,10,XTAL2/PB7*%
%TO.N,Net-(U1-XTAL2{slash}PB7)*%
X132080000Y-115555000D03*
%TO.P,U1,11,PD5*%
%TO.N,unconnected-(U1-PD5-Pad11)*%
X132080000Y-118095000D03*
%TO.P,U1,12,PD6*%
%TO.N,unconnected-(U1-PD6-Pad12)*%
X132080000Y-120635000D03*
%TO.P,U1,13,PD7*%
%TO.N,Net-(U1-PD7)*%
X132080000Y-123175000D03*
%TO.P,U1,14,PB0*%
%TO.N,Net-(U1-PB0)*%
X132080000Y-125715000D03*
%TO.P,U1,15,PB1*%
%TO.N,unconnected-(U1-PB1-Pad15)*%
X139700000Y-125715000D03*
%TO.P,U1,16,PB2*%
%TO.N,Net-(U1-PB2)*%
X139700000Y-123175000D03*
%TO.P,U1,17,PB3*%
%TO.N,Net-(U1-PB3)*%
X139700000Y-120635000D03*
%TO.P,U1,18,PB4*%
%TO.N,unconnected-(U1-PB4-Pad18)*%
X139700000Y-118095000D03*
%TO.P,U1,19,PB5*%
%TO.N,Net-(U1-PB5)*%
X139700000Y-115555000D03*
%TO.P,U1,20,AVCC*%
%TO.N,Net-(U1-AVCC)*%
X139700000Y-113015000D03*
%TO.P,U1,21,AREF*%
%TO.N,unconnected-(U1-AREF-Pad21)*%
X139700000Y-110475000D03*
%TO.P,U1,22,GND*%
%TO.N,Earth*%
X139700000Y-107935000D03*
%TO.P,U1,23,PC0*%
%TO.N,unconnected-(U1-PC0-Pad23)*%
X139700000Y-105395000D03*
%TO.P,U1,24,PC1*%
%TO.N,unconnected-(U1-PC1-Pad24)*%
X139700000Y-102855000D03*
%TO.P,U1,25,PC2*%
%TO.N,unconnected-(U1-PC2-Pad25)*%
X139700000Y-100315000D03*
%TO.P,U1,26,PC3*%
%TO.N,unconnected-(U1-PC3-Pad26)*%
X139700000Y-97775000D03*
%TO.P,U1,27,PC4*%
%TO.N,unconnected-(U1-PC4-Pad27)*%
X139700000Y-95235000D03*
%TO.P,U1,28,PC5*%
%TO.N,unconnected-(U1-PC5-Pad28)*%
X139700000Y-92695000D03*
%TD*%
D15*
%TO.P,U3,1,VCC*%
%TO.N,Net-(U1-AVCC)*%
X144780000Y-90520000D03*
%TO.P,U3,2,GND*%
%TO.N,Earth*%
X144780000Y-93520000D03*
%TO.P,U3,3,DIN*%
%TO.N,Net-(U1-PB3)*%
X144780000Y-96520000D03*
%TO.P,U3,4,CLK*%
%TO.N,Net-(U1-PB5)*%
X144780000Y-99520000D03*
%TO.P,U3,5,CS*%
%TO.N,Net-(U1-PB2)*%
X144780000Y-102520000D03*
%TO.P,U3,6,DC*%
%TO.N,Net-(U1-PD7)*%
X144780000Y-105520000D03*
%TO.P,U3,7,RST*%
%TO.N,Net-(U1-PB0)*%
X144780000Y-108520000D03*
%TD*%
%TO.P,U2,4,TXD*%
%TO.N,Net-(U1-PD2)*%
X127000000Y-102060000D03*
%TO.P,U2,3,RXD*%
%TO.N,Net-(U1-PD3)*%
X127000000Y-99060000D03*
%TO.P,U2,2,VCC*%
%TO.N,Net-(U1-AVCC)*%
X127000000Y-96060000D03*
%TO.P,U2,1,GND*%
%TO.N,Earth*%
X127000000Y-93060000D03*
%TD*%
D11*
%TO.P,R1,1*%
%TO.N,Net-(U4-VCC)*%
X144880000Y-120210000D03*
%TO.P,R1,2*%
%TO.N,Net-(U1-AVCC)*%
X144880000Y-128710000D03*
%TD*%
D15*
%TO.P,U4,1,VCC*%
%TO.N,Net-(U4-VCC)*%
X152400000Y-121920000D03*
%TO.P,U4,2,GND*%
%TO.N,Earth*%
X152400000Y-127000000D03*
%TD*%
D10*
%TO.P,R4,1*%
%TO.N,Net-(U1-~{RESET}{slash}PC6)*%
X131200000Y-88900000D03*
%TO.P,R4,2*%
%TO.N,Net-(U1-AVCC)*%
X139700000Y-88900000D03*
%TD*%
D16*
%TO.N,Net-(U1-PD2)*%
X130772205Y-101622794D03*
X129027700Y-102112300D03*
%TO.N,Earth*%
X147320000Y-119380000D03*
X129540000Y-117364500D03*
%TO.N,Net-(U1-PD7)*%
X144809531Y-111761727D03*
X144732701Y-114347299D03*
%TO.N,Net-(U1-PB2)*%
X147320000Y-114300000D03*
%TO.N,Net-(U1-PB3)*%
X142240000Y-109220000D03*
%TO.N,Net-(U1-PB5)*%
X142530649Y-107904753D03*
X140877500Y-111577561D03*
%TO.N,Net-(U1-PB0)*%
X142951448Y-109922031D03*
%TO.N,Net-(U1-AVCC)*%
X139700000Y-111874503D03*
X137160000Y-109220000D03*
X132080000Y-91295498D03*
%TD*%
D17*
%TO.N,Net-(U1-PD2)*%
X132080000Y-100315000D02*
X130772205Y-101622794D01*
%TO.N,Net-(U1-AVCC)*%
X148590000Y-121920000D02*
X147122000Y-123388000D01*
X147122000Y-123388000D02*
X147122000Y-126468000D01*
X147122000Y-126468000D02*
X144880000Y-128710000D01*
%TO.N,Net-(U1-~{RESET}{slash}PC6)*%
X131200000Y-88900000D02*
X131200000Y-91815000D01*
X131200000Y-91815000D02*
X132080000Y-92695000D01*
%TO.N,Net-(U1-PD2)*%
X127000000Y-102060000D02*
X128975400Y-102060000D01*
X128975400Y-102060000D02*
X129027700Y-102112300D01*
%TO.N,Net-(U1-PD3)*%
X129540000Y-99060000D02*
X129540000Y-101600000D01*
X130795000Y-102855000D02*
X132080000Y-102855000D01*
X127000000Y-99060000D02*
X129540000Y-99060000D01*
X129540000Y-101600000D02*
X130795000Y-102855000D01*
%TO.N,Earth*%
X129540000Y-118754009D02*
X129540000Y-117364500D01*
X147320000Y-115910000D02*
X147320000Y-119380000D01*
X142240000Y-93980000D02*
X144320000Y-93980000D01*
X127920000Y-93980000D02*
X127000000Y-93060000D01*
X128540000Y-122230000D02*
X128540000Y-119754009D01*
X128850000Y-122540000D02*
X128540000Y-122230000D01*
X152400000Y-127000000D02*
X151130000Y-127000000D01*
X139700000Y-107935000D02*
X142240000Y-105395000D01*
X144320000Y-93980000D02*
X144780000Y-93520000D01*
X143070000Y-111305000D02*
X143070000Y-111660000D01*
X151130000Y-127000000D02*
X148590000Y-124460000D01*
X128540000Y-119754009D02*
X129540000Y-118754009D01*
X143070000Y-111660000D02*
X147320000Y-115910000D01*
X139700000Y-107935000D02*
X143070000Y-111305000D01*
X128540000Y-125730000D02*
X128850000Y-125420000D01*
X128850000Y-125420000D02*
X128850000Y-122540000D01*
X137160000Y-110475000D02*
X139700000Y-107935000D01*
X142240000Y-93980000D02*
X127920000Y-93980000D01*
X132080000Y-110475000D02*
X137160000Y-110475000D01*
X142240000Y-105395000D02*
X142240000Y-93980000D01*
%TO.N,Net-(U1-XTAL1{slash}PB6)*%
X124532000Y-114228000D02*
X127000000Y-111760000D01*
X124532000Y-124262000D02*
X124532000Y-114228000D01*
X127000000Y-111760000D02*
X130825000Y-111760000D01*
X126000000Y-125730000D02*
X124532000Y-124262000D01*
X130825000Y-111760000D02*
X132080000Y-113015000D01*
%TO.N,Net-(U1-XTAL2{slash}PB7)*%
X126000000Y-117640000D02*
X127000000Y-116640000D01*
X127000000Y-116640000D02*
X130995000Y-116640000D01*
X126000000Y-122230000D02*
X126000000Y-117640000D01*
X130995000Y-116640000D02*
X132080000Y-115555000D01*
%TO.N,Net-(U1-PD7)*%
X141602000Y-116131934D02*
X141602000Y-117783991D01*
X143386635Y-114347299D02*
X141602000Y-116131934D01*
X140005991Y-119380000D02*
X135875000Y-119380000D01*
X146248000Y-106988000D02*
X146248000Y-110323258D01*
X146248000Y-110323258D02*
X144809531Y-111761727D01*
X141602000Y-117783991D02*
X140005991Y-119380000D01*
X144780000Y-105520000D02*
X146248000Y-106988000D01*
X144732701Y-114347299D02*
X143386635Y-114347299D01*
X135875000Y-119380000D02*
X132080000Y-123175000D01*
%TO.N,Net-(U1-PB2)*%
X147320000Y-105060000D02*
X147320000Y-114300000D01*
X144780000Y-102520000D02*
X147320000Y-105060000D01*
%TO.N,Net-(U1-PB3)*%
X143312000Y-108148000D02*
X142240000Y-109220000D01*
X144780000Y-96520000D02*
X143312000Y-97988000D01*
X143312000Y-97988000D02*
X143312000Y-108148000D01*
%TO.N,Net-(U1-PB5)*%
X144780000Y-99520000D02*
X146248000Y-98052000D01*
X140877500Y-114377500D02*
X139700000Y-115555000D01*
X140877500Y-111577561D02*
X140877500Y-114377500D01*
X146248000Y-95846565D02*
X145834435Y-95433000D01*
X145834435Y-95433000D02*
X143725565Y-95433000D01*
X143725565Y-95433000D02*
X142862000Y-96296565D01*
X142862000Y-96296565D02*
X142862000Y-107573402D01*
X142862000Y-107573402D02*
X142530649Y-107904753D01*
X146248000Y-98052000D02*
X146248000Y-95846565D01*
%TO.N,Net-(U4-VCC)*%
X150690000Y-120210000D02*
X144880000Y-120210000D01*
X152400000Y-121920000D02*
X150690000Y-120210000D01*
%TO.N,Net-(U1-PB0)*%
X143221417Y-110192000D02*
X142951448Y-109922031D01*
X144780000Y-109220000D02*
X143808000Y-110192000D01*
X143808000Y-110192000D02*
X143221417Y-110192000D01*
X144780000Y-108520000D02*
X144780000Y-109220000D01*
%TO.N,Net-(R2-Pad2)*%
X151570000Y-116740000D02*
X151570000Y-111660000D01*
%TO.N,Net-(U1-AVCC)*%
X139700000Y-88900000D02*
X143160000Y-88900000D01*
X139700000Y-113015000D02*
X139700000Y-111874503D01*
X143070000Y-126900000D02*
X143070000Y-116740000D01*
X144880000Y-128710000D02*
X143070000Y-126900000D01*
X132080000Y-107935000D02*
X135875000Y-107935000D01*
X143160000Y-88900000D02*
X144780000Y-90520000D01*
X134475498Y-88900000D02*
X132080000Y-91295498D01*
X139700000Y-88900000D02*
X134475498Y-88900000D01*
X135875000Y-107935000D02*
X137160000Y-109220000D01*
%TD*%
M02*
