%TF.GenerationSoftware,KiCad,Pcbnew,7.0.6-0*%
%TF.CreationDate,2023-07-26T14:31:40-04:00*%
%TF.ProjectId,Sleep_Apnea,536c6565-705f-4417-906e-65612e6b6963,rev?*%
%TF.SameCoordinates,Original*%
%TF.FileFunction,Legend,Top*%
%TF.FilePolarity,Positive*%
%FSLAX46Y46*%
G04 Gerber Fmt 4.6, Leading zero omitted, Abs format (unit mm)*
G04 Created by KiCad (PCBNEW 7.0.6-0) date 2023-07-26 14:31:40*
%MOMM*%
%LPD*%
G01*
G04 APERTURE LIST*
%ADD10C,0.250000*%
%ADD11C,0.100000*%
%ADD12C,0.150000*%
%ADD13C,0.120000*%
G04 APERTURE END LIST*
D10*
X132902568Y-117264619D02*
X132902568Y-116264619D01*
X132902568Y-116264619D02*
X133283520Y-116264619D01*
X133283520Y-116264619D02*
X133378758Y-116312238D01*
X133378758Y-116312238D02*
X133426377Y-116359857D01*
X133426377Y-116359857D02*
X133473996Y-116455095D01*
X133473996Y-116455095D02*
X133473996Y-116597952D01*
X133473996Y-116597952D02*
X133426377Y-116693190D01*
X133426377Y-116693190D02*
X133378758Y-116740809D01*
X133378758Y-116740809D02*
X133283520Y-116788428D01*
X133283520Y-116788428D02*
X132902568Y-116788428D01*
X133902568Y-117264619D02*
X133902568Y-116597952D01*
X133902568Y-116788428D02*
X133950187Y-116693190D01*
X133950187Y-116693190D02*
X133997806Y-116645571D01*
X133997806Y-116645571D02*
X134093044Y-116597952D01*
X134093044Y-116597952D02*
X134188282Y-116597952D01*
X134664473Y-117264619D02*
X134569235Y-117217000D01*
X134569235Y-117217000D02*
X134521616Y-117169380D01*
X134521616Y-117169380D02*
X134473997Y-117074142D01*
X134473997Y-117074142D02*
X134473997Y-116788428D01*
X134473997Y-116788428D02*
X134521616Y-116693190D01*
X134521616Y-116693190D02*
X134569235Y-116645571D01*
X134569235Y-116645571D02*
X134664473Y-116597952D01*
X134664473Y-116597952D02*
X134807330Y-116597952D01*
X134807330Y-116597952D02*
X134902568Y-116645571D01*
X134902568Y-116645571D02*
X134950187Y-116693190D01*
X134950187Y-116693190D02*
X134997806Y-116788428D01*
X134997806Y-116788428D02*
X134997806Y-117074142D01*
X134997806Y-117074142D02*
X134950187Y-117169380D01*
X134950187Y-117169380D02*
X134902568Y-117217000D01*
X134902568Y-117217000D02*
X134807330Y-117264619D01*
X134807330Y-117264619D02*
X134664473Y-117264619D01*
X135854949Y-117264619D02*
X135854949Y-116264619D01*
X135854949Y-117217000D02*
X135759711Y-117264619D01*
X135759711Y-117264619D02*
X135569235Y-117264619D01*
X135569235Y-117264619D02*
X135473997Y-117217000D01*
X135473997Y-117217000D02*
X135426378Y-117169380D01*
X135426378Y-117169380D02*
X135378759Y-117074142D01*
X135378759Y-117074142D02*
X135378759Y-116788428D01*
X135378759Y-116788428D02*
X135426378Y-116693190D01*
X135426378Y-116693190D02*
X135473997Y-116645571D01*
X135473997Y-116645571D02*
X135569235Y-116597952D01*
X135569235Y-116597952D02*
X135759711Y-116597952D01*
X135759711Y-116597952D02*
X135854949Y-116645571D01*
X136759711Y-116597952D02*
X136759711Y-117264619D01*
X136331140Y-116597952D02*
X136331140Y-117121761D01*
X136331140Y-117121761D02*
X136378759Y-117217000D01*
X136378759Y-117217000D02*
X136473997Y-117264619D01*
X136473997Y-117264619D02*
X136616854Y-117264619D01*
X136616854Y-117264619D02*
X136712092Y-117217000D01*
X136712092Y-117217000D02*
X136759711Y-117169380D01*
X137664473Y-117217000D02*
X137569235Y-117264619D01*
X137569235Y-117264619D02*
X137378759Y-117264619D01*
X137378759Y-117264619D02*
X137283521Y-117217000D01*
X137283521Y-117217000D02*
X137235902Y-117169380D01*
X137235902Y-117169380D02*
X137188283Y-117074142D01*
X137188283Y-117074142D02*
X137188283Y-116788428D01*
X137188283Y-116788428D02*
X137235902Y-116693190D01*
X137235902Y-116693190D02*
X137283521Y-116645571D01*
X137283521Y-116645571D02*
X137378759Y-116597952D01*
X137378759Y-116597952D02*
X137569235Y-116597952D01*
X137569235Y-116597952D02*
X137664473Y-116645571D01*
X138473997Y-117217000D02*
X138378759Y-117264619D01*
X138378759Y-117264619D02*
X138188283Y-117264619D01*
X138188283Y-117264619D02*
X138093045Y-117217000D01*
X138093045Y-117217000D02*
X138045426Y-117121761D01*
X138045426Y-117121761D02*
X138045426Y-116740809D01*
X138045426Y-116740809D02*
X138093045Y-116645571D01*
X138093045Y-116645571D02*
X138188283Y-116597952D01*
X138188283Y-116597952D02*
X138378759Y-116597952D01*
X138378759Y-116597952D02*
X138473997Y-116645571D01*
X138473997Y-116645571D02*
X138521616Y-116740809D01*
X138521616Y-116740809D02*
X138521616Y-116836047D01*
X138521616Y-116836047D02*
X138045426Y-116931285D01*
X139378759Y-117264619D02*
X139378759Y-116264619D01*
X139378759Y-117217000D02*
X139283521Y-117264619D01*
X139283521Y-117264619D02*
X139093045Y-117264619D01*
X139093045Y-117264619D02*
X138997807Y-117217000D01*
X138997807Y-117217000D02*
X138950188Y-117169380D01*
X138950188Y-117169380D02*
X138902569Y-117074142D01*
X138902569Y-117074142D02*
X138902569Y-116788428D01*
X138902569Y-116788428D02*
X138950188Y-116693190D01*
X138950188Y-116693190D02*
X138997807Y-116645571D01*
X138997807Y-116645571D02*
X139093045Y-116597952D01*
X139093045Y-116597952D02*
X139283521Y-116597952D01*
X139283521Y-116597952D02*
X139378759Y-116645571D01*
X140950188Y-116740809D02*
X141093045Y-116788428D01*
X141093045Y-116788428D02*
X141140664Y-116836047D01*
X141140664Y-116836047D02*
X141188283Y-116931285D01*
X141188283Y-116931285D02*
X141188283Y-117074142D01*
X141188283Y-117074142D02*
X141140664Y-117169380D01*
X141140664Y-117169380D02*
X141093045Y-117217000D01*
X141093045Y-117217000D02*
X140997807Y-117264619D01*
X140997807Y-117264619D02*
X140616855Y-117264619D01*
X140616855Y-117264619D02*
X140616855Y-116264619D01*
X140616855Y-116264619D02*
X140950188Y-116264619D01*
X140950188Y-116264619D02*
X141045426Y-116312238D01*
X141045426Y-116312238D02*
X141093045Y-116359857D01*
X141093045Y-116359857D02*
X141140664Y-116455095D01*
X141140664Y-116455095D02*
X141140664Y-116550333D01*
X141140664Y-116550333D02*
X141093045Y-116645571D01*
X141093045Y-116645571D02*
X141045426Y-116693190D01*
X141045426Y-116693190D02*
X140950188Y-116740809D01*
X140950188Y-116740809D02*
X140616855Y-116740809D01*
X141521617Y-116597952D02*
X141759712Y-117264619D01*
X141997807Y-116597952D02*
X141759712Y-117264619D01*
X141759712Y-117264619D02*
X141664474Y-117502714D01*
X141664474Y-117502714D02*
X141616855Y-117550333D01*
X141616855Y-117550333D02*
X141521617Y-117597952D01*
X131402568Y-119244619D02*
X131402568Y-118244619D01*
X131402568Y-118244619D02*
X131640663Y-118244619D01*
X131640663Y-118244619D02*
X131783520Y-118292238D01*
X131783520Y-118292238D02*
X131878758Y-118387476D01*
X131878758Y-118387476D02*
X131926377Y-118482714D01*
X131926377Y-118482714D02*
X131973996Y-118673190D01*
X131973996Y-118673190D02*
X131973996Y-118816047D01*
X131973996Y-118816047D02*
X131926377Y-119006523D01*
X131926377Y-119006523D02*
X131878758Y-119101761D01*
X131878758Y-119101761D02*
X131783520Y-119197000D01*
X131783520Y-119197000D02*
X131640663Y-119244619D01*
X131640663Y-119244619D02*
X131402568Y-119244619D01*
X132831139Y-119244619D02*
X132831139Y-118720809D01*
X132831139Y-118720809D02*
X132783520Y-118625571D01*
X132783520Y-118625571D02*
X132688282Y-118577952D01*
X132688282Y-118577952D02*
X132497806Y-118577952D01*
X132497806Y-118577952D02*
X132402568Y-118625571D01*
X132831139Y-119197000D02*
X132735901Y-119244619D01*
X132735901Y-119244619D02*
X132497806Y-119244619D01*
X132497806Y-119244619D02*
X132402568Y-119197000D01*
X132402568Y-119197000D02*
X132354949Y-119101761D01*
X132354949Y-119101761D02*
X132354949Y-119006523D01*
X132354949Y-119006523D02*
X132402568Y-118911285D01*
X132402568Y-118911285D02*
X132497806Y-118863666D01*
X132497806Y-118863666D02*
X132735901Y-118863666D01*
X132735901Y-118863666D02*
X132831139Y-118816047D01*
X133307330Y-118577952D02*
X133307330Y-119244619D01*
X133307330Y-118673190D02*
X133354949Y-118625571D01*
X133354949Y-118625571D02*
X133450187Y-118577952D01*
X133450187Y-118577952D02*
X133593044Y-118577952D01*
X133593044Y-118577952D02*
X133688282Y-118625571D01*
X133688282Y-118625571D02*
X133735901Y-118720809D01*
X133735901Y-118720809D02*
X133735901Y-119244619D01*
X134212092Y-119244619D02*
X134212092Y-118577952D01*
X134212092Y-118244619D02*
X134164473Y-118292238D01*
X134164473Y-118292238D02*
X134212092Y-118339857D01*
X134212092Y-118339857D02*
X134259711Y-118292238D01*
X134259711Y-118292238D02*
X134212092Y-118244619D01*
X134212092Y-118244619D02*
X134212092Y-118339857D01*
X135069234Y-119197000D02*
X134973996Y-119244619D01*
X134973996Y-119244619D02*
X134783520Y-119244619D01*
X134783520Y-119244619D02*
X134688282Y-119197000D01*
X134688282Y-119197000D02*
X134640663Y-119101761D01*
X134640663Y-119101761D02*
X134640663Y-118720809D01*
X134640663Y-118720809D02*
X134688282Y-118625571D01*
X134688282Y-118625571D02*
X134783520Y-118577952D01*
X134783520Y-118577952D02*
X134973996Y-118577952D01*
X134973996Y-118577952D02*
X135069234Y-118625571D01*
X135069234Y-118625571D02*
X135116853Y-118720809D01*
X135116853Y-118720809D02*
X135116853Y-118816047D01*
X135116853Y-118816047D02*
X134640663Y-118911285D01*
X135688282Y-119244619D02*
X135593044Y-119197000D01*
X135593044Y-119197000D02*
X135545425Y-119101761D01*
X135545425Y-119101761D02*
X135545425Y-118244619D01*
X137402568Y-119244619D02*
X137069235Y-118768428D01*
X136831140Y-119244619D02*
X136831140Y-118244619D01*
X136831140Y-118244619D02*
X137212092Y-118244619D01*
X137212092Y-118244619D02*
X137307330Y-118292238D01*
X137307330Y-118292238D02*
X137354949Y-118339857D01*
X137354949Y-118339857D02*
X137402568Y-118435095D01*
X137402568Y-118435095D02*
X137402568Y-118577952D01*
X137402568Y-118577952D02*
X137354949Y-118673190D01*
X137354949Y-118673190D02*
X137307330Y-118720809D01*
X137307330Y-118720809D02*
X137212092Y-118768428D01*
X137212092Y-118768428D02*
X136831140Y-118768428D01*
X138259711Y-119244619D02*
X138259711Y-118720809D01*
X138259711Y-118720809D02*
X138212092Y-118625571D01*
X138212092Y-118625571D02*
X138116854Y-118577952D01*
X138116854Y-118577952D02*
X137926378Y-118577952D01*
X137926378Y-118577952D02*
X137831140Y-118625571D01*
X138259711Y-119197000D02*
X138164473Y-119244619D01*
X138164473Y-119244619D02*
X137926378Y-119244619D01*
X137926378Y-119244619D02*
X137831140Y-119197000D01*
X137831140Y-119197000D02*
X137783521Y-119101761D01*
X137783521Y-119101761D02*
X137783521Y-119006523D01*
X137783521Y-119006523D02*
X137831140Y-118911285D01*
X137831140Y-118911285D02*
X137926378Y-118863666D01*
X137926378Y-118863666D02*
X138164473Y-118863666D01*
X138164473Y-118863666D02*
X138259711Y-118816047D01*
X138735902Y-119244619D02*
X138735902Y-118577952D01*
X138735902Y-118673190D02*
X138783521Y-118625571D01*
X138783521Y-118625571D02*
X138878759Y-118577952D01*
X138878759Y-118577952D02*
X139021616Y-118577952D01*
X139021616Y-118577952D02*
X139116854Y-118625571D01*
X139116854Y-118625571D02*
X139164473Y-118720809D01*
X139164473Y-118720809D02*
X139164473Y-119244619D01*
X139164473Y-118720809D02*
X139212092Y-118625571D01*
X139212092Y-118625571D02*
X139307330Y-118577952D01*
X139307330Y-118577952D02*
X139450187Y-118577952D01*
X139450187Y-118577952D02*
X139545426Y-118625571D01*
X139545426Y-118625571D02*
X139593045Y-118720809D01*
X139593045Y-118720809D02*
X139593045Y-119244619D01*
X140021616Y-119197000D02*
X140116854Y-119244619D01*
X140116854Y-119244619D02*
X140307330Y-119244619D01*
X140307330Y-119244619D02*
X140402568Y-119197000D01*
X140402568Y-119197000D02*
X140450187Y-119101761D01*
X140450187Y-119101761D02*
X140450187Y-119054142D01*
X140450187Y-119054142D02*
X140402568Y-118958904D01*
X140402568Y-118958904D02*
X140307330Y-118911285D01*
X140307330Y-118911285D02*
X140164473Y-118911285D01*
X140164473Y-118911285D02*
X140069235Y-118863666D01*
X140069235Y-118863666D02*
X140021616Y-118768428D01*
X140021616Y-118768428D02*
X140021616Y-118720809D01*
X140021616Y-118720809D02*
X140069235Y-118625571D01*
X140069235Y-118625571D02*
X140164473Y-118577952D01*
X140164473Y-118577952D02*
X140307330Y-118577952D01*
X140307330Y-118577952D02*
X140402568Y-118625571D01*
X141307330Y-118577952D02*
X141307330Y-119387476D01*
X141307330Y-119387476D02*
X141259711Y-119482714D01*
X141259711Y-119482714D02*
X141212092Y-119530333D01*
X141212092Y-119530333D02*
X141116854Y-119577952D01*
X141116854Y-119577952D02*
X140973997Y-119577952D01*
X140973997Y-119577952D02*
X140878759Y-119530333D01*
X141307330Y-119197000D02*
X141212092Y-119244619D01*
X141212092Y-119244619D02*
X141021616Y-119244619D01*
X141021616Y-119244619D02*
X140926378Y-119197000D01*
X140926378Y-119197000D02*
X140878759Y-119149380D01*
X140878759Y-119149380D02*
X140831140Y-119054142D01*
X140831140Y-119054142D02*
X140831140Y-118768428D01*
X140831140Y-118768428D02*
X140878759Y-118673190D01*
X140878759Y-118673190D02*
X140926378Y-118625571D01*
X140926378Y-118625571D02*
X141021616Y-118577952D01*
X141021616Y-118577952D02*
X141212092Y-118577952D01*
X141212092Y-118577952D02*
X141307330Y-118625571D01*
X142212092Y-119244619D02*
X142212092Y-118720809D01*
X142212092Y-118720809D02*
X142164473Y-118625571D01*
X142164473Y-118625571D02*
X142069235Y-118577952D01*
X142069235Y-118577952D02*
X141878759Y-118577952D01*
X141878759Y-118577952D02*
X141783521Y-118625571D01*
X142212092Y-119197000D02*
X142116854Y-119244619D01*
X142116854Y-119244619D02*
X141878759Y-119244619D01*
X141878759Y-119244619D02*
X141783521Y-119197000D01*
X141783521Y-119197000D02*
X141735902Y-119101761D01*
X141735902Y-119101761D02*
X141735902Y-119006523D01*
X141735902Y-119006523D02*
X141783521Y-118911285D01*
X141783521Y-118911285D02*
X141878759Y-118863666D01*
X141878759Y-118863666D02*
X142116854Y-118863666D01*
X142116854Y-118863666D02*
X142212092Y-118816047D01*
X142688283Y-119244619D02*
X142688283Y-118577952D01*
X142688283Y-118768428D02*
X142735902Y-118673190D01*
X142735902Y-118673190D02*
X142783521Y-118625571D01*
X142783521Y-118625571D02*
X142878759Y-118577952D01*
X142878759Y-118577952D02*
X142973997Y-118577952D01*
X143735902Y-119244619D02*
X143735902Y-118244619D01*
X143735902Y-119197000D02*
X143640664Y-119244619D01*
X143640664Y-119244619D02*
X143450188Y-119244619D01*
X143450188Y-119244619D02*
X143354950Y-119197000D01*
X143354950Y-119197000D02*
X143307331Y-119149380D01*
X143307331Y-119149380D02*
X143259712Y-119054142D01*
X143259712Y-119054142D02*
X143259712Y-118768428D01*
X143259712Y-118768428D02*
X143307331Y-118673190D01*
X143307331Y-118673190D02*
X143354950Y-118625571D01*
X143354950Y-118625571D02*
X143450188Y-118577952D01*
X143450188Y-118577952D02*
X143640664Y-118577952D01*
X143640664Y-118577952D02*
X143735902Y-118625571D01*
D11*
X138937217Y-113636895D02*
X138556265Y-113636895D01*
X138556265Y-113636895D02*
X138518169Y-114017847D01*
X138518169Y-114017847D02*
X138556265Y-113979752D01*
X138556265Y-113979752D02*
X138632455Y-113941657D01*
X138632455Y-113941657D02*
X138822931Y-113941657D01*
X138822931Y-113941657D02*
X138899122Y-113979752D01*
X138899122Y-113979752D02*
X138937217Y-114017847D01*
X138937217Y-114017847D02*
X138975312Y-114094038D01*
X138975312Y-114094038D02*
X138975312Y-114284514D01*
X138975312Y-114284514D02*
X138937217Y-114360704D01*
X138937217Y-114360704D02*
X138899122Y-114398800D01*
X138899122Y-114398800D02*
X138822931Y-114436895D01*
X138822931Y-114436895D02*
X138632455Y-114436895D01*
X138632455Y-114436895D02*
X138556265Y-114398800D01*
X138556265Y-114398800D02*
X138518169Y-114360704D01*
X139203884Y-113636895D02*
X139470551Y-114436895D01*
X139470551Y-114436895D02*
X139737217Y-113636895D01*
X140003884Y-114132133D02*
X140613408Y-114132133D01*
X141413407Y-113674990D02*
X141337217Y-113636895D01*
X141337217Y-113636895D02*
X141222931Y-113636895D01*
X141222931Y-113636895D02*
X141108645Y-113674990D01*
X141108645Y-113674990D02*
X141032455Y-113751180D01*
X141032455Y-113751180D02*
X140994360Y-113827371D01*
X140994360Y-113827371D02*
X140956264Y-113979752D01*
X140956264Y-113979752D02*
X140956264Y-114094038D01*
X140956264Y-114094038D02*
X140994360Y-114246419D01*
X140994360Y-114246419D02*
X141032455Y-114322609D01*
X141032455Y-114322609D02*
X141108645Y-114398800D01*
X141108645Y-114398800D02*
X141222931Y-114436895D01*
X141222931Y-114436895D02*
X141299122Y-114436895D01*
X141299122Y-114436895D02*
X141413407Y-114398800D01*
X141413407Y-114398800D02*
X141451503Y-114360704D01*
X141451503Y-114360704D02*
X141451503Y-114094038D01*
X141451503Y-114094038D02*
X141299122Y-114094038D01*
X141794360Y-114436895D02*
X141794360Y-113636895D01*
X141794360Y-113636895D02*
X142251503Y-114436895D01*
X142251503Y-114436895D02*
X142251503Y-113636895D01*
X142632455Y-114436895D02*
X142632455Y-113636895D01*
X142632455Y-113636895D02*
X142822931Y-113636895D01*
X142822931Y-113636895D02*
X142937217Y-113674990D01*
X142937217Y-113674990D02*
X143013407Y-113751180D01*
X143013407Y-113751180D02*
X143051502Y-113827371D01*
X143051502Y-113827371D02*
X143089598Y-113979752D01*
X143089598Y-113979752D02*
X143089598Y-114094038D01*
X143089598Y-114094038D02*
X143051502Y-114246419D01*
X143051502Y-114246419D02*
X143013407Y-114322609D01*
X143013407Y-114322609D02*
X142937217Y-114398800D01*
X142937217Y-114398800D02*
X142822931Y-114436895D01*
X142822931Y-114436895D02*
X142632455Y-114436895D01*
X144041979Y-114436895D02*
X144041979Y-113636895D01*
X144041979Y-113636895D02*
X144346741Y-113636895D01*
X144346741Y-113636895D02*
X144422931Y-113674990D01*
X144422931Y-113674990D02*
X144461026Y-113713085D01*
X144461026Y-113713085D02*
X144499122Y-113789276D01*
X144499122Y-113789276D02*
X144499122Y-113903561D01*
X144499122Y-113903561D02*
X144461026Y-113979752D01*
X144461026Y-113979752D02*
X144422931Y-114017847D01*
X144422931Y-114017847D02*
X144346741Y-114055942D01*
X144346741Y-114055942D02*
X144041979Y-114055942D01*
X144803883Y-114398800D02*
X144918169Y-114436895D01*
X144918169Y-114436895D02*
X145108645Y-114436895D01*
X145108645Y-114436895D02*
X145184836Y-114398800D01*
X145184836Y-114398800D02*
X145222931Y-114360704D01*
X145222931Y-114360704D02*
X145261026Y-114284514D01*
X145261026Y-114284514D02*
X145261026Y-114208323D01*
X145261026Y-114208323D02*
X145222931Y-114132133D01*
X145222931Y-114132133D02*
X145184836Y-114094038D01*
X145184836Y-114094038D02*
X145108645Y-114055942D01*
X145108645Y-114055942D02*
X144956264Y-114017847D01*
X144956264Y-114017847D02*
X144880074Y-113979752D01*
X144880074Y-113979752D02*
X144841979Y-113941657D01*
X144841979Y-113941657D02*
X144803883Y-113865466D01*
X144803883Y-113865466D02*
X144803883Y-113789276D01*
X144803883Y-113789276D02*
X144841979Y-113713085D01*
X144841979Y-113713085D02*
X144880074Y-113674990D01*
X144880074Y-113674990D02*
X144956264Y-113636895D01*
X144956264Y-113636895D02*
X145146741Y-113636895D01*
X145146741Y-113636895D02*
X145261026Y-113674990D01*
X123726109Y-108333333D02*
X123488014Y-108499999D01*
X123726109Y-108619047D02*
X123226109Y-108619047D01*
X123226109Y-108619047D02*
X123226109Y-108428571D01*
X123226109Y-108428571D02*
X123249919Y-108380952D01*
X123249919Y-108380952D02*
X123273728Y-108357142D01*
X123273728Y-108357142D02*
X123321347Y-108333333D01*
X123321347Y-108333333D02*
X123392776Y-108333333D01*
X123392776Y-108333333D02*
X123440395Y-108357142D01*
X123440395Y-108357142D02*
X123464204Y-108380952D01*
X123464204Y-108380952D02*
X123488014Y-108428571D01*
X123488014Y-108428571D02*
X123488014Y-108619047D01*
X123392776Y-107904761D02*
X123726109Y-107904761D01*
X123202300Y-108023809D02*
X123559442Y-108142856D01*
X123559442Y-108142856D02*
X123559442Y-107833333D01*
X124733609Y-109259449D02*
X124495514Y-109426115D01*
X124733609Y-109545163D02*
X124233609Y-109545163D01*
X124233609Y-109545163D02*
X124233609Y-109354687D01*
X124233609Y-109354687D02*
X124257419Y-109307068D01*
X124257419Y-109307068D02*
X124281228Y-109283258D01*
X124281228Y-109283258D02*
X124328847Y-109259449D01*
X124328847Y-109259449D02*
X124400276Y-109259449D01*
X124400276Y-109259449D02*
X124447895Y-109283258D01*
X124447895Y-109283258D02*
X124471704Y-109307068D01*
X124471704Y-109307068D02*
X124495514Y-109354687D01*
X124495514Y-109354687D02*
X124495514Y-109545163D01*
X124709800Y-108854687D02*
X124733609Y-108902306D01*
X124733609Y-108902306D02*
X124733609Y-108997544D01*
X124733609Y-108997544D02*
X124709800Y-109045163D01*
X124709800Y-109045163D02*
X124662180Y-109068972D01*
X124662180Y-109068972D02*
X124471704Y-109068972D01*
X124471704Y-109068972D02*
X124424085Y-109045163D01*
X124424085Y-109045163D02*
X124400276Y-108997544D01*
X124400276Y-108997544D02*
X124400276Y-108902306D01*
X124400276Y-108902306D02*
X124424085Y-108854687D01*
X124424085Y-108854687D02*
X124471704Y-108830877D01*
X124471704Y-108830877D02*
X124519323Y-108830877D01*
X124519323Y-108830877D02*
X124566942Y-109068972D01*
X124709800Y-108640401D02*
X124733609Y-108592782D01*
X124733609Y-108592782D02*
X124733609Y-108497544D01*
X124733609Y-108497544D02*
X124709800Y-108449925D01*
X124709800Y-108449925D02*
X124662180Y-108426116D01*
X124662180Y-108426116D02*
X124638371Y-108426116D01*
X124638371Y-108426116D02*
X124590752Y-108449925D01*
X124590752Y-108449925D02*
X124566942Y-108497544D01*
X124566942Y-108497544D02*
X124566942Y-108568973D01*
X124566942Y-108568973D02*
X124543133Y-108616592D01*
X124543133Y-108616592D02*
X124495514Y-108640401D01*
X124495514Y-108640401D02*
X124471704Y-108640401D01*
X124471704Y-108640401D02*
X124424085Y-108616592D01*
X124424085Y-108616592D02*
X124400276Y-108568973D01*
X124400276Y-108568973D02*
X124400276Y-108497544D01*
X124400276Y-108497544D02*
X124424085Y-108449925D01*
X124733609Y-108211830D02*
X124400276Y-108211830D01*
X124233609Y-108211830D02*
X124257419Y-108235639D01*
X124257419Y-108235639D02*
X124281228Y-108211830D01*
X124281228Y-108211830D02*
X124257419Y-108188020D01*
X124257419Y-108188020D02*
X124233609Y-108211830D01*
X124233609Y-108211830D02*
X124281228Y-108211830D01*
X124709800Y-107997544D02*
X124733609Y-107949925D01*
X124733609Y-107949925D02*
X124733609Y-107854687D01*
X124733609Y-107854687D02*
X124709800Y-107807068D01*
X124709800Y-107807068D02*
X124662180Y-107783259D01*
X124662180Y-107783259D02*
X124638371Y-107783259D01*
X124638371Y-107783259D02*
X124590752Y-107807068D01*
X124590752Y-107807068D02*
X124566942Y-107854687D01*
X124566942Y-107854687D02*
X124566942Y-107926116D01*
X124566942Y-107926116D02*
X124543133Y-107973735D01*
X124543133Y-107973735D02*
X124495514Y-107997544D01*
X124495514Y-107997544D02*
X124471704Y-107997544D01*
X124471704Y-107997544D02*
X124424085Y-107973735D01*
X124424085Y-107973735D02*
X124400276Y-107926116D01*
X124400276Y-107926116D02*
X124400276Y-107854687D01*
X124400276Y-107854687D02*
X124424085Y-107807068D01*
X124400276Y-107640401D02*
X124400276Y-107449925D01*
X124233609Y-107568973D02*
X124662180Y-107568973D01*
X124662180Y-107568973D02*
X124709800Y-107545163D01*
X124709800Y-107545163D02*
X124733609Y-107497544D01*
X124733609Y-107497544D02*
X124733609Y-107449925D01*
X124733609Y-107211830D02*
X124709800Y-107259449D01*
X124709800Y-107259449D02*
X124685990Y-107283259D01*
X124685990Y-107283259D02*
X124638371Y-107307068D01*
X124638371Y-107307068D02*
X124495514Y-107307068D01*
X124495514Y-107307068D02*
X124447895Y-107283259D01*
X124447895Y-107283259D02*
X124424085Y-107259449D01*
X124424085Y-107259449D02*
X124400276Y-107211830D01*
X124400276Y-107211830D02*
X124400276Y-107140402D01*
X124400276Y-107140402D02*
X124424085Y-107092783D01*
X124424085Y-107092783D02*
X124447895Y-107068973D01*
X124447895Y-107068973D02*
X124495514Y-107045164D01*
X124495514Y-107045164D02*
X124638371Y-107045164D01*
X124638371Y-107045164D02*
X124685990Y-107068973D01*
X124685990Y-107068973D02*
X124709800Y-107092783D01*
X124709800Y-107092783D02*
X124733609Y-107140402D01*
X124733609Y-107140402D02*
X124733609Y-107211830D01*
X124733609Y-106830878D02*
X124400276Y-106830878D01*
X124495514Y-106830878D02*
X124447895Y-106807068D01*
X124447895Y-106807068D02*
X124424085Y-106783259D01*
X124424085Y-106783259D02*
X124400276Y-106735640D01*
X124400276Y-106735640D02*
X124400276Y-106688021D01*
X130426666Y-114196109D02*
X130260000Y-113958014D01*
X130140952Y-114196109D02*
X130140952Y-113696109D01*
X130140952Y-113696109D02*
X130331428Y-113696109D01*
X130331428Y-113696109D02*
X130379047Y-113719919D01*
X130379047Y-113719919D02*
X130402857Y-113743728D01*
X130402857Y-113743728D02*
X130426666Y-113791347D01*
X130426666Y-113791347D02*
X130426666Y-113862776D01*
X130426666Y-113862776D02*
X130402857Y-113910395D01*
X130402857Y-113910395D02*
X130379047Y-113934204D01*
X130379047Y-113934204D02*
X130331428Y-113958014D01*
X130331428Y-113958014D02*
X130140952Y-113958014D01*
X130902857Y-114196109D02*
X130617143Y-114196109D01*
X130760000Y-114196109D02*
X130760000Y-113696109D01*
X130760000Y-113696109D02*
X130712381Y-113767538D01*
X130712381Y-113767538D02*
X130664762Y-113815157D01*
X130664762Y-113815157D02*
X130617143Y-113838966D01*
X129500550Y-115203609D02*
X129333884Y-114965514D01*
X129214836Y-115203609D02*
X129214836Y-114703609D01*
X129214836Y-114703609D02*
X129405312Y-114703609D01*
X129405312Y-114703609D02*
X129452931Y-114727419D01*
X129452931Y-114727419D02*
X129476741Y-114751228D01*
X129476741Y-114751228D02*
X129500550Y-114798847D01*
X129500550Y-114798847D02*
X129500550Y-114870276D01*
X129500550Y-114870276D02*
X129476741Y-114917895D01*
X129476741Y-114917895D02*
X129452931Y-114941704D01*
X129452931Y-114941704D02*
X129405312Y-114965514D01*
X129405312Y-114965514D02*
X129214836Y-114965514D01*
X129905312Y-115179800D02*
X129857693Y-115203609D01*
X129857693Y-115203609D02*
X129762455Y-115203609D01*
X129762455Y-115203609D02*
X129714836Y-115179800D01*
X129714836Y-115179800D02*
X129691027Y-115132180D01*
X129691027Y-115132180D02*
X129691027Y-114941704D01*
X129691027Y-114941704D02*
X129714836Y-114894085D01*
X129714836Y-114894085D02*
X129762455Y-114870276D01*
X129762455Y-114870276D02*
X129857693Y-114870276D01*
X129857693Y-114870276D02*
X129905312Y-114894085D01*
X129905312Y-114894085D02*
X129929122Y-114941704D01*
X129929122Y-114941704D02*
X129929122Y-114989323D01*
X129929122Y-114989323D02*
X129691027Y-115036942D01*
X130119598Y-115179800D02*
X130167217Y-115203609D01*
X130167217Y-115203609D02*
X130262455Y-115203609D01*
X130262455Y-115203609D02*
X130310074Y-115179800D01*
X130310074Y-115179800D02*
X130333883Y-115132180D01*
X130333883Y-115132180D02*
X130333883Y-115108371D01*
X130333883Y-115108371D02*
X130310074Y-115060752D01*
X130310074Y-115060752D02*
X130262455Y-115036942D01*
X130262455Y-115036942D02*
X130191026Y-115036942D01*
X130191026Y-115036942D02*
X130143407Y-115013133D01*
X130143407Y-115013133D02*
X130119598Y-114965514D01*
X130119598Y-114965514D02*
X130119598Y-114941704D01*
X130119598Y-114941704D02*
X130143407Y-114894085D01*
X130143407Y-114894085D02*
X130191026Y-114870276D01*
X130191026Y-114870276D02*
X130262455Y-114870276D01*
X130262455Y-114870276D02*
X130310074Y-114894085D01*
X130548169Y-115203609D02*
X130548169Y-114870276D01*
X130548169Y-114703609D02*
X130524360Y-114727419D01*
X130524360Y-114727419D02*
X130548169Y-114751228D01*
X130548169Y-114751228D02*
X130571979Y-114727419D01*
X130571979Y-114727419D02*
X130548169Y-114703609D01*
X130548169Y-114703609D02*
X130548169Y-114751228D01*
X130762455Y-115179800D02*
X130810074Y-115203609D01*
X130810074Y-115203609D02*
X130905312Y-115203609D01*
X130905312Y-115203609D02*
X130952931Y-115179800D01*
X130952931Y-115179800D02*
X130976740Y-115132180D01*
X130976740Y-115132180D02*
X130976740Y-115108371D01*
X130976740Y-115108371D02*
X130952931Y-115060752D01*
X130952931Y-115060752D02*
X130905312Y-115036942D01*
X130905312Y-115036942D02*
X130833883Y-115036942D01*
X130833883Y-115036942D02*
X130786264Y-115013133D01*
X130786264Y-115013133D02*
X130762455Y-114965514D01*
X130762455Y-114965514D02*
X130762455Y-114941704D01*
X130762455Y-114941704D02*
X130786264Y-114894085D01*
X130786264Y-114894085D02*
X130833883Y-114870276D01*
X130833883Y-114870276D02*
X130905312Y-114870276D01*
X130905312Y-114870276D02*
X130952931Y-114894085D01*
X131119598Y-114870276D02*
X131310074Y-114870276D01*
X131191026Y-114703609D02*
X131191026Y-115132180D01*
X131191026Y-115132180D02*
X131214836Y-115179800D01*
X131214836Y-115179800D02*
X131262455Y-115203609D01*
X131262455Y-115203609D02*
X131310074Y-115203609D01*
X131548169Y-115203609D02*
X131500550Y-115179800D01*
X131500550Y-115179800D02*
X131476740Y-115155990D01*
X131476740Y-115155990D02*
X131452931Y-115108371D01*
X131452931Y-115108371D02*
X131452931Y-114965514D01*
X131452931Y-114965514D02*
X131476740Y-114917895D01*
X131476740Y-114917895D02*
X131500550Y-114894085D01*
X131500550Y-114894085D02*
X131548169Y-114870276D01*
X131548169Y-114870276D02*
X131619597Y-114870276D01*
X131619597Y-114870276D02*
X131667216Y-114894085D01*
X131667216Y-114894085D02*
X131691026Y-114917895D01*
X131691026Y-114917895D02*
X131714835Y-114965514D01*
X131714835Y-114965514D02*
X131714835Y-115108371D01*
X131714835Y-115108371D02*
X131691026Y-115155990D01*
X131691026Y-115155990D02*
X131667216Y-115179800D01*
X131667216Y-115179800D02*
X131619597Y-115203609D01*
X131619597Y-115203609D02*
X131548169Y-115203609D01*
X131929121Y-115203609D02*
X131929121Y-114870276D01*
X131929121Y-114965514D02*
X131952931Y-114917895D01*
X131952931Y-114917895D02*
X131976740Y-114894085D01*
X131976740Y-114894085D02*
X132024359Y-114870276D01*
X132024359Y-114870276D02*
X132071978Y-114870276D01*
D12*
X140208095Y-103594819D02*
X140208095Y-104404342D01*
X140208095Y-104404342D02*
X140255714Y-104499580D01*
X140255714Y-104499580D02*
X140303333Y-104547200D01*
X140303333Y-104547200D02*
X140398571Y-104594819D01*
X140398571Y-104594819D02*
X140589047Y-104594819D01*
X140589047Y-104594819D02*
X140684285Y-104547200D01*
X140684285Y-104547200D02*
X140731904Y-104499580D01*
X140731904Y-104499580D02*
X140779523Y-104404342D01*
X140779523Y-104404342D02*
X140779523Y-103594819D01*
X141779523Y-104594819D02*
X141208095Y-104594819D01*
X141493809Y-104594819D02*
X141493809Y-103594819D01*
X141493809Y-103594819D02*
X141398571Y-103737676D01*
X141398571Y-103737676D02*
X141303333Y-103832914D01*
X141303333Y-103832914D02*
X141208095Y-103880533D01*
X133693922Y-101809819D02*
X134027255Y-102809819D01*
X134027255Y-102809819D02*
X134360588Y-101809819D01*
X135027255Y-102286009D02*
X135170112Y-102333628D01*
X135170112Y-102333628D02*
X135217731Y-102381247D01*
X135217731Y-102381247D02*
X135265350Y-102476485D01*
X135265350Y-102476485D02*
X135265350Y-102619342D01*
X135265350Y-102619342D02*
X135217731Y-102714580D01*
X135217731Y-102714580D02*
X135170112Y-102762200D01*
X135170112Y-102762200D02*
X135074874Y-102809819D01*
X135074874Y-102809819D02*
X134693922Y-102809819D01*
X134693922Y-102809819D02*
X134693922Y-101809819D01*
X134693922Y-101809819D02*
X135027255Y-101809819D01*
X135027255Y-101809819D02*
X135122493Y-101857438D01*
X135122493Y-101857438D02*
X135170112Y-101905057D01*
X135170112Y-101905057D02*
X135217731Y-102000295D01*
X135217731Y-102000295D02*
X135217731Y-102095533D01*
X135217731Y-102095533D02*
X135170112Y-102190771D01*
X135170112Y-102190771D02*
X135122493Y-102238390D01*
X135122493Y-102238390D02*
X135027255Y-102286009D01*
X135027255Y-102286009D02*
X134693922Y-102286009D01*
D11*
X135506666Y-93876109D02*
X135340000Y-93638014D01*
X135220952Y-93876109D02*
X135220952Y-93376109D01*
X135220952Y-93376109D02*
X135411428Y-93376109D01*
X135411428Y-93376109D02*
X135459047Y-93399919D01*
X135459047Y-93399919D02*
X135482857Y-93423728D01*
X135482857Y-93423728D02*
X135506666Y-93471347D01*
X135506666Y-93471347D02*
X135506666Y-93542776D01*
X135506666Y-93542776D02*
X135482857Y-93590395D01*
X135482857Y-93590395D02*
X135459047Y-93614204D01*
X135459047Y-93614204D02*
X135411428Y-93638014D01*
X135411428Y-93638014D02*
X135220952Y-93638014D01*
X135697143Y-93423728D02*
X135720952Y-93399919D01*
X135720952Y-93399919D02*
X135768571Y-93376109D01*
X135768571Y-93376109D02*
X135887619Y-93376109D01*
X135887619Y-93376109D02*
X135935238Y-93399919D01*
X135935238Y-93399919D02*
X135959047Y-93423728D01*
X135959047Y-93423728D02*
X135982857Y-93471347D01*
X135982857Y-93471347D02*
X135982857Y-93518966D01*
X135982857Y-93518966D02*
X135959047Y-93590395D01*
X135959047Y-93590395D02*
X135673333Y-93876109D01*
X135673333Y-93876109D02*
X135982857Y-93876109D01*
X134580550Y-94883609D02*
X134413884Y-94645514D01*
X134294836Y-94883609D02*
X134294836Y-94383609D01*
X134294836Y-94383609D02*
X134485312Y-94383609D01*
X134485312Y-94383609D02*
X134532931Y-94407419D01*
X134532931Y-94407419D02*
X134556741Y-94431228D01*
X134556741Y-94431228D02*
X134580550Y-94478847D01*
X134580550Y-94478847D02*
X134580550Y-94550276D01*
X134580550Y-94550276D02*
X134556741Y-94597895D01*
X134556741Y-94597895D02*
X134532931Y-94621704D01*
X134532931Y-94621704D02*
X134485312Y-94645514D01*
X134485312Y-94645514D02*
X134294836Y-94645514D01*
X134985312Y-94859800D02*
X134937693Y-94883609D01*
X134937693Y-94883609D02*
X134842455Y-94883609D01*
X134842455Y-94883609D02*
X134794836Y-94859800D01*
X134794836Y-94859800D02*
X134771027Y-94812180D01*
X134771027Y-94812180D02*
X134771027Y-94621704D01*
X134771027Y-94621704D02*
X134794836Y-94574085D01*
X134794836Y-94574085D02*
X134842455Y-94550276D01*
X134842455Y-94550276D02*
X134937693Y-94550276D01*
X134937693Y-94550276D02*
X134985312Y-94574085D01*
X134985312Y-94574085D02*
X135009122Y-94621704D01*
X135009122Y-94621704D02*
X135009122Y-94669323D01*
X135009122Y-94669323D02*
X134771027Y-94716942D01*
X135199598Y-94859800D02*
X135247217Y-94883609D01*
X135247217Y-94883609D02*
X135342455Y-94883609D01*
X135342455Y-94883609D02*
X135390074Y-94859800D01*
X135390074Y-94859800D02*
X135413883Y-94812180D01*
X135413883Y-94812180D02*
X135413883Y-94788371D01*
X135413883Y-94788371D02*
X135390074Y-94740752D01*
X135390074Y-94740752D02*
X135342455Y-94716942D01*
X135342455Y-94716942D02*
X135271026Y-94716942D01*
X135271026Y-94716942D02*
X135223407Y-94693133D01*
X135223407Y-94693133D02*
X135199598Y-94645514D01*
X135199598Y-94645514D02*
X135199598Y-94621704D01*
X135199598Y-94621704D02*
X135223407Y-94574085D01*
X135223407Y-94574085D02*
X135271026Y-94550276D01*
X135271026Y-94550276D02*
X135342455Y-94550276D01*
X135342455Y-94550276D02*
X135390074Y-94574085D01*
X135628169Y-94883609D02*
X135628169Y-94550276D01*
X135628169Y-94383609D02*
X135604360Y-94407419D01*
X135604360Y-94407419D02*
X135628169Y-94431228D01*
X135628169Y-94431228D02*
X135651979Y-94407419D01*
X135651979Y-94407419D02*
X135628169Y-94383609D01*
X135628169Y-94383609D02*
X135628169Y-94431228D01*
X135842455Y-94859800D02*
X135890074Y-94883609D01*
X135890074Y-94883609D02*
X135985312Y-94883609D01*
X135985312Y-94883609D02*
X136032931Y-94859800D01*
X136032931Y-94859800D02*
X136056740Y-94812180D01*
X136056740Y-94812180D02*
X136056740Y-94788371D01*
X136056740Y-94788371D02*
X136032931Y-94740752D01*
X136032931Y-94740752D02*
X135985312Y-94716942D01*
X135985312Y-94716942D02*
X135913883Y-94716942D01*
X135913883Y-94716942D02*
X135866264Y-94693133D01*
X135866264Y-94693133D02*
X135842455Y-94645514D01*
X135842455Y-94645514D02*
X135842455Y-94621704D01*
X135842455Y-94621704D02*
X135866264Y-94574085D01*
X135866264Y-94574085D02*
X135913883Y-94550276D01*
X135913883Y-94550276D02*
X135985312Y-94550276D01*
X135985312Y-94550276D02*
X136032931Y-94574085D01*
X136199598Y-94550276D02*
X136390074Y-94550276D01*
X136271026Y-94383609D02*
X136271026Y-94812180D01*
X136271026Y-94812180D02*
X136294836Y-94859800D01*
X136294836Y-94859800D02*
X136342455Y-94883609D01*
X136342455Y-94883609D02*
X136390074Y-94883609D01*
X136628169Y-94883609D02*
X136580550Y-94859800D01*
X136580550Y-94859800D02*
X136556740Y-94835990D01*
X136556740Y-94835990D02*
X136532931Y-94788371D01*
X136532931Y-94788371D02*
X136532931Y-94645514D01*
X136532931Y-94645514D02*
X136556740Y-94597895D01*
X136556740Y-94597895D02*
X136580550Y-94574085D01*
X136580550Y-94574085D02*
X136628169Y-94550276D01*
X136628169Y-94550276D02*
X136699597Y-94550276D01*
X136699597Y-94550276D02*
X136747216Y-94574085D01*
X136747216Y-94574085D02*
X136771026Y-94597895D01*
X136771026Y-94597895D02*
X136794835Y-94645514D01*
X136794835Y-94645514D02*
X136794835Y-94788371D01*
X136794835Y-94788371D02*
X136771026Y-94835990D01*
X136771026Y-94835990D02*
X136747216Y-94859800D01*
X136747216Y-94859800D02*
X136699597Y-94883609D01*
X136699597Y-94883609D02*
X136628169Y-94883609D01*
X137009121Y-94883609D02*
X137009121Y-94550276D01*
X137009121Y-94645514D02*
X137032931Y-94597895D01*
X137032931Y-94597895D02*
X137056740Y-94574085D01*
X137056740Y-94574085D02*
X137104359Y-94550276D01*
X137104359Y-94550276D02*
X137151978Y-94550276D01*
X149978095Y-101057419D02*
X149978095Y-101866942D01*
X149978095Y-101866942D02*
X150025714Y-101962180D01*
X150025714Y-101962180D02*
X150073333Y-102009800D01*
X150073333Y-102009800D02*
X150168571Y-102057419D01*
X150168571Y-102057419D02*
X150359047Y-102057419D01*
X150359047Y-102057419D02*
X150454285Y-102009800D01*
X150454285Y-102009800D02*
X150501904Y-101962180D01*
X150501904Y-101962180D02*
X150549523Y-101866942D01*
X150549523Y-101866942D02*
X150549523Y-101057419D01*
X150978095Y-101152657D02*
X151025714Y-101105038D01*
X151025714Y-101105038D02*
X151120952Y-101057419D01*
X151120952Y-101057419D02*
X151359047Y-101057419D01*
X151359047Y-101057419D02*
X151454285Y-101105038D01*
X151454285Y-101105038D02*
X151501904Y-101152657D01*
X151501904Y-101152657D02*
X151549523Y-101247895D01*
X151549523Y-101247895D02*
X151549523Y-101343133D01*
X151549523Y-101343133D02*
X151501904Y-101485990D01*
X151501904Y-101485990D02*
X150930476Y-102057419D01*
X150930476Y-102057419D02*
X151549523Y-102057419D01*
X150021027Y-103012419D02*
X150354360Y-104012419D01*
X150354360Y-104012419D02*
X150687693Y-103012419D01*
X151592455Y-104012419D02*
X151259122Y-103536228D01*
X151021027Y-104012419D02*
X151021027Y-103012419D01*
X151021027Y-103012419D02*
X151401979Y-103012419D01*
X151401979Y-103012419D02*
X151497217Y-103060038D01*
X151497217Y-103060038D02*
X151544836Y-103107657D01*
X151544836Y-103107657D02*
X151592455Y-103202895D01*
X151592455Y-103202895D02*
X151592455Y-103345752D01*
X151592455Y-103345752D02*
X151544836Y-103440990D01*
X151544836Y-103440990D02*
X151497217Y-103488609D01*
X151497217Y-103488609D02*
X151401979Y-103536228D01*
X151401979Y-103536228D02*
X151021027Y-103536228D01*
X126903890Y-104196666D02*
X127141985Y-104030000D01*
X126903890Y-103910952D02*
X127403890Y-103910952D01*
X127403890Y-103910952D02*
X127403890Y-104101428D01*
X127403890Y-104101428D02*
X127380080Y-104149047D01*
X127380080Y-104149047D02*
X127356271Y-104172857D01*
X127356271Y-104172857D02*
X127308652Y-104196666D01*
X127308652Y-104196666D02*
X127237223Y-104196666D01*
X127237223Y-104196666D02*
X127189604Y-104172857D01*
X127189604Y-104172857D02*
X127165795Y-104149047D01*
X127165795Y-104149047D02*
X127141985Y-104101428D01*
X127141985Y-104101428D02*
X127141985Y-103910952D01*
X127403890Y-104363333D02*
X127403890Y-104672857D01*
X127403890Y-104672857D02*
X127213414Y-104506190D01*
X127213414Y-104506190D02*
X127213414Y-104577619D01*
X127213414Y-104577619D02*
X127189604Y-104625238D01*
X127189604Y-104625238D02*
X127165795Y-104649047D01*
X127165795Y-104649047D02*
X127118176Y-104672857D01*
X127118176Y-104672857D02*
X126999128Y-104672857D01*
X126999128Y-104672857D02*
X126951509Y-104649047D01*
X126951509Y-104649047D02*
X126927700Y-104625238D01*
X126927700Y-104625238D02*
X126903890Y-104577619D01*
X126903890Y-104577619D02*
X126903890Y-104434762D01*
X126903890Y-104434762D02*
X126927700Y-104387143D01*
X126927700Y-104387143D02*
X126951509Y-104363333D01*
X125896390Y-103270550D02*
X126134485Y-103103884D01*
X125896390Y-102984836D02*
X126396390Y-102984836D01*
X126396390Y-102984836D02*
X126396390Y-103175312D01*
X126396390Y-103175312D02*
X126372580Y-103222931D01*
X126372580Y-103222931D02*
X126348771Y-103246741D01*
X126348771Y-103246741D02*
X126301152Y-103270550D01*
X126301152Y-103270550D02*
X126229723Y-103270550D01*
X126229723Y-103270550D02*
X126182104Y-103246741D01*
X126182104Y-103246741D02*
X126158295Y-103222931D01*
X126158295Y-103222931D02*
X126134485Y-103175312D01*
X126134485Y-103175312D02*
X126134485Y-102984836D01*
X125920200Y-103675312D02*
X125896390Y-103627693D01*
X125896390Y-103627693D02*
X125896390Y-103532455D01*
X125896390Y-103532455D02*
X125920200Y-103484836D01*
X125920200Y-103484836D02*
X125967819Y-103461027D01*
X125967819Y-103461027D02*
X126158295Y-103461027D01*
X126158295Y-103461027D02*
X126205914Y-103484836D01*
X126205914Y-103484836D02*
X126229723Y-103532455D01*
X126229723Y-103532455D02*
X126229723Y-103627693D01*
X126229723Y-103627693D02*
X126205914Y-103675312D01*
X126205914Y-103675312D02*
X126158295Y-103699122D01*
X126158295Y-103699122D02*
X126110676Y-103699122D01*
X126110676Y-103699122D02*
X126063057Y-103461027D01*
X125920200Y-103889598D02*
X125896390Y-103937217D01*
X125896390Y-103937217D02*
X125896390Y-104032455D01*
X125896390Y-104032455D02*
X125920200Y-104080074D01*
X125920200Y-104080074D02*
X125967819Y-104103883D01*
X125967819Y-104103883D02*
X125991628Y-104103883D01*
X125991628Y-104103883D02*
X126039247Y-104080074D01*
X126039247Y-104080074D02*
X126063057Y-104032455D01*
X126063057Y-104032455D02*
X126063057Y-103961026D01*
X126063057Y-103961026D02*
X126086866Y-103913407D01*
X126086866Y-103913407D02*
X126134485Y-103889598D01*
X126134485Y-103889598D02*
X126158295Y-103889598D01*
X126158295Y-103889598D02*
X126205914Y-103913407D01*
X126205914Y-103913407D02*
X126229723Y-103961026D01*
X126229723Y-103961026D02*
X126229723Y-104032455D01*
X126229723Y-104032455D02*
X126205914Y-104080074D01*
X125896390Y-104318169D02*
X126229723Y-104318169D01*
X126396390Y-104318169D02*
X126372580Y-104294360D01*
X126372580Y-104294360D02*
X126348771Y-104318169D01*
X126348771Y-104318169D02*
X126372580Y-104341979D01*
X126372580Y-104341979D02*
X126396390Y-104318169D01*
X126396390Y-104318169D02*
X126348771Y-104318169D01*
X125920200Y-104532455D02*
X125896390Y-104580074D01*
X125896390Y-104580074D02*
X125896390Y-104675312D01*
X125896390Y-104675312D02*
X125920200Y-104722931D01*
X125920200Y-104722931D02*
X125967819Y-104746740D01*
X125967819Y-104746740D02*
X125991628Y-104746740D01*
X125991628Y-104746740D02*
X126039247Y-104722931D01*
X126039247Y-104722931D02*
X126063057Y-104675312D01*
X126063057Y-104675312D02*
X126063057Y-104603883D01*
X126063057Y-104603883D02*
X126086866Y-104556264D01*
X126086866Y-104556264D02*
X126134485Y-104532455D01*
X126134485Y-104532455D02*
X126158295Y-104532455D01*
X126158295Y-104532455D02*
X126205914Y-104556264D01*
X126205914Y-104556264D02*
X126229723Y-104603883D01*
X126229723Y-104603883D02*
X126229723Y-104675312D01*
X126229723Y-104675312D02*
X126205914Y-104722931D01*
X126229723Y-104889598D02*
X126229723Y-105080074D01*
X126396390Y-104961026D02*
X125967819Y-104961026D01*
X125967819Y-104961026D02*
X125920200Y-104984836D01*
X125920200Y-104984836D02*
X125896390Y-105032455D01*
X125896390Y-105032455D02*
X125896390Y-105080074D01*
X125896390Y-105318169D02*
X125920200Y-105270550D01*
X125920200Y-105270550D02*
X125944009Y-105246740D01*
X125944009Y-105246740D02*
X125991628Y-105222931D01*
X125991628Y-105222931D02*
X126134485Y-105222931D01*
X126134485Y-105222931D02*
X126182104Y-105246740D01*
X126182104Y-105246740D02*
X126205914Y-105270550D01*
X126205914Y-105270550D02*
X126229723Y-105318169D01*
X126229723Y-105318169D02*
X126229723Y-105389597D01*
X126229723Y-105389597D02*
X126205914Y-105437216D01*
X126205914Y-105437216D02*
X126182104Y-105461026D01*
X126182104Y-105461026D02*
X126134485Y-105484835D01*
X126134485Y-105484835D02*
X125991628Y-105484835D01*
X125991628Y-105484835D02*
X125944009Y-105461026D01*
X125944009Y-105461026D02*
X125920200Y-105437216D01*
X125920200Y-105437216D02*
X125896390Y-105389597D01*
X125896390Y-105389597D02*
X125896390Y-105318169D01*
X125896390Y-105699121D02*
X126229723Y-105699121D01*
X126134485Y-105699121D02*
X126182104Y-105722931D01*
X126182104Y-105722931D02*
X126205914Y-105746740D01*
X126205914Y-105746740D02*
X126229723Y-105794359D01*
X126229723Y-105794359D02*
X126229723Y-105841978D01*
D13*
%TO.C,U1*%
X138320000Y-100270000D02*
X138320000Y-110550000D01*
X138320000Y-110550000D02*
X143620000Y-110550000D01*
X139970000Y-100270000D02*
X138320000Y-100270000D01*
X143620000Y-100270000D02*
X141970000Y-100270000D01*
X143620000Y-110550000D02*
X143620000Y-100270000D01*
X139970000Y-100270000D02*
G75*
G03*
X141970000Y-100270000I1000000J0D01*
G01*
%TO.C,Q1*%
X133930000Y-109750000D02*
X133930000Y-106150000D01*
X129480000Y-107950000D02*
G75*
G03*
X133918478Y-109788478I2600000J0D01*
G01*
X133918478Y-106111522D02*
G75*
G03*
X129480000Y-107950000I-1838478J-1838478D01*
G01*
%TD*%
M02*
